<?xml version="1.0" encoding="UTF-8"?><svg id="Layer_1" xmlns="http://www.w3.org/2000/svg" viewBox="0 0 411.51 209.69"><defs><style>.cls-1{fill:#d8d8d8;}.cls-2{fill:#1d1d1b;}</style></defs><g><path class="cls-2" d="M207.19,21.2l-.29,.58c-.39,.29-1.2,.39-2.42,.29l-.48-.48c.48-.84,.69-1.36,.63-1.55-.84-2.36-1.88-4.36-3.1-6.01-1.49-2.04-3.57-3.25-6.25-3.64-.36-.19-.84-.42-1.45-.68-.61-.16-1.6-.15-2.96,.05-1.45,.23-2.47,.27-3.05,.15-.23-.03-.65,.07-1.26,.29-.74,.26-1.24,.39-1.5,.39-.87,.19-2.21,.4-4.02,.63-1,0-2.47,.03-4.41,.1-.39,.03-.87,.35-1.45,.95-.58,.6-.92,1.11-1.02,1.53,.06,.74,.1,1.81,.1,3.2-.39,1.16-.82,2.84-1.31,5.04-.23,1.87-.07,3.93,.48,6.16,.1,1.29,.26,3.25,.48,5.87l-.19,10.18c.39,1.2,.58,1.99,.58,2.38,0,.58-.21,1.21-.63,1.89-.48,.78-.74,1.23-.78,1.36,.16,.29,.6,.55,1.31,.78,.23,.36,.31,.71,.24,1.07-.03,.19-.47,.73-1.31,1.6,.29,.52,.6,1.33,.92,2.42,.13,1.62-.02,2.89-.44,3.83-.48,1.13-.73,2.26-.73,3.39,0,.71,.14,1.71,.41,2.98,.27,1.28,.41,2.25,.41,2.93,0,.94-.19,1.86-.58,2.76-.16,.42-.23,.73-.19,.92,.32,.32,.68,.53,1.07,.63,.29,.32,.39,.73,.29,1.21-.32,1.33-.71,3.33-1.16,6.01,0,.07,.23,3.28,.68,9.65-.07,1.13-.08,2.79-.05,4.99,.19,1.71,.79,3.51,1.79,5.38,.35,.23,.78,.55,1.26,.97,.45,.87,1.28,2.07,2.47,3.59,.68,.58,1.47,.97,2.38,1.16,1.07,.1,2.65,.27,4.75,.53,.32,.36,.35,.79,.1,1.31h-13.48c-.16,0-.94-.1-2.33-.29-1.39-.19-2.17-.29-2.33-.29h-8.77c-.07,0-.74,.13-2.01,.39-1.28,.26-2.22,.39-2.84,.39-4.52,0-7.16-.07-7.9-.19-.1-.16-.15-.32-.15-.48,0-.84,1-1.39,3.01-1.65,.9-.06,2.23-.44,3.98-1.11,2.29-1.78,3.86-3.75,4.7-5.91,.45-1.16,.71-2.57,.78-4.22,.1-2.46,.15-3.72,.15-3.78,.19-.61,.48-1.49,.87-2.62-.19-.48-.29-1.16-.29-2.04,.65-1.29,.97-2.8,.97-4.51,0-1.62-.24-2.96-.73-4.02-.16-.32-.21-1.15-.15-2.47,.1-2.04,.34-5.25,.73-9.65,0-.13,.1-.65,.29-1.55,.16-.71,.23-1.37,.19-1.99-.13-.19-.29-.47-.48-.82-.03-.13,.04-.36,.22-.7,.18-.34,.27-.57,.27-.7,0-5.07-.03-7.43-.1-7.08,.23-1.58,.32-2.44,.29-2.57-.16-.19-.32-.53-.48-1.02,.06-.87,.08-2.21,.05-4.02-.1-1.68-.02-3.22,.24-4.6,.16-.97,.44-1.59,.82-1.87,.39-.27,.87-.41,1.45-.41,.42,0,1.1,.15,2.04,.44,.94,.29,1.65,.44,2.13,.44,.74,0,1.42-.27,2.04-.82-.19-.55-.84-.95-1.94-1.21-.87-.16-1.75-.34-2.62-.53-.16-.23-.5-.52-1.02-.87-.68,0-1.68-.37-3.01-1.11,.06-.61,.1-2.44,.1-5.48,0-.19-.04-.7-.12-1.53-.08-.82-.12-1.45-.12-1.87,0-.45,.03-1.36,.1-2.71,.03-1.13,.03-2.04,0-2.71,0-.35-.16-.58-.48-.68-.45-.19-.76-.35-.92-.48-.03-.06-.05-.15-.05-.24,0-.23,.19-.52,.56-.87,.37-.35,.57-.61,.61-.78,.26-.81,.34-2.46,.24-4.94-.52-.48-1.15-.73-1.89-.73-.19,0-.48,.02-.85,.05-.37,.03-.65,.05-.85,.05-1.07,0-1.91-.55-2.52-1.65-.71,.61-1.89,1.31-3.54,2.08-.36,.07-.73,.1-1.12,.1-.68,0-1.63-.12-2.86-.36-1.23-.24-2.13-.36-2.71-.36-.94,0-1.78,.21-2.52,.63-.16,.1-1.44,.4-3.83,.92-.29,.06-.9,.55-1.84,1.45-1.36,1.62-3.52,4.19-6.5,7.71-.13,.16-.45,1.05-.97,2.67-.42,1.29-.97,1.94-1.65,1.94-.36,0-.76-.15-1.21-.44-.03-.39,.11-1.05,.44-1.99,.42-1.1,.65-1.73,.68-1.89,.32-1.94,.86-4.88,1.6-8.82,.03-.06,.15-1.66,.34-4.8,.13-2.04,.6-3.51,1.41-4.41,2.46-.42,4.28-.58,5.48-.48,.45,.23,1.11,.48,1.99,.78,.19,.03,.53-.04,1.02-.22,.48-.18,.81-.28,.97-.32,.48,.07,1.23,.1,2.23,.1,.45-.19,1.18-.42,2.18-.68,.68-.13,1.63-.1,2.86,.1,1.49,.26,2.49,.39,3.01,.39,.16,0,.52-.06,1.09-.19,.56-.13,.95-.19,1.14-.19h7.56c.1,0,.41-.06,.95-.19,.53-.13,.9-.16,1.09-.1,.52,.19,1.18,.42,1.99,.68,6.01,.32,9.89,.36,11.63,.1-.13,.03,.55,.13,2.04,.29,.26,.03,1.58-.06,3.97-.29,.42,.07,1.02,.1,1.79,.1,.13-.03,.36-.15,.7-.36,.34-.21,.59-.31,.75-.31,2.71,0,5.59-.06,8.63-.19,.65-.03,2.05,.03,4.22,.19,.19,0,.56,.12,1.12,.36,.55,.24,.97,.36,1.26,.36,.55-.03,2.44-.34,5.67-.92,.71,.52,1.05,1.36,1.02,2.52-.1,.97-.19,1.94-.29,2.91,0,.52,.02,1.37,.05,2.57,.06,1.29,.1,1.97,.1,2.04v4.27s.06,.47,.19,1.31c.13,.84,.19,1.6,.19,2.28Z"/><path class="cls-2" d="M239.08,27.32c0,.31-.17,.59-.5,.84-1.17,.31-2.18,.73-3.02,1.26-.48,.31-1.04,.95-1.7,1.93-.66,.98-.99,1.72-.99,2.22,0,2.52,.03,3.51,.08,2.98-.22,.67-.48,1.65-.76,2.94,0,.34,.18,1.78,.55,4.32,.11,.87,.17,2,.17,3.4,0,1.65-.09,3.66-.27,6.02-.18,2.36-.27,3.46-.27,3.29v6.21c0,6.32,.74,10.7,2.22,13.13,.28,.48,.89,.96,1.85,1.47,.95,.5,1.76,.78,2.43,.84-.17,.28-.48,.7-.92,1.26h-19.59c0-.17-.04-.43-.13-.78s-.13-.59-.13-.73c.61-.28,1.5-.7,2.64-1.26,.87-.42,1.68-1.71,2.43-3.86,.64-1.87,.97-3.34,.97-4.4v-6.12c0-.42-.1-1.57-.29-3.44-.14-1.43-.14-2.57,0-3.44,.11-.64-.13-1.73-.71-3.27-1.37,1.01-3.44,1.76-6.21,2.27-1.45,.28-2.71,.34-3.77,.17-1.45-.25-2.22-.38-2.31-.38h-10.57c-.64,.36-1.47,1.04-2.47,2.01-.42,.67-.56,1.62-.42,2.85,.22,.48,.47,1.16,.76,2.06-.08-.39-.18,.38-.29,2.31-.03,.14,.07,2.34,.29,6.59,.22,4.59,1.8,7.16,4.74,7.72,.11,.03,.71,.25,1.8,.67-.95,1.03-2.03,1.55-3.23,1.55-.34,0-.74-.04-1.22-.13-.56-.08-.91-.13-1.05-.13l-16.53-.25c.03-.5,.67-1.01,1.93-1.51,1.48-.62,2.61-1.52,3.4-2.73,.59-.92,.98-2.66,1.17-5.2,.22-2.66,.25-4.92,.08-6.79-.11-.22-.28-.53-.5-.92-.03-2.15,.1-5.35,.38-9.61,.03-.14,.18-.59,.46-1.34,.25-.64,.36-1.17,.34-1.59-.31-.48-.7-1.3-1.17-2.47,.08,.34,.18-.59,.29-2.77,.03-.45-.02-1.1-.15-1.97-.13-.87-.19-1.36-.19-1.47v-6.75c0-.89-.63-1.97-1.89-3.23s-2.5-2.08-3.73-2.47c.03-.06,.34-.53,.92-1.43,1.01-.03,2.57-.13,4.7-.29,2.01-.17,3.06-.25,3.15-.25h7.97c.36,0,.74-.04,1.13-.13,.39-.08,.66-.13,.8-.13,.56,0,1.54,.55,2.94,1.64-.98,.48-1.96,.96-2.94,1.47-1.2,.64-2.08,1.36-2.64,2.14-.9,1.23-1.34,3.54-1.34,6.92v8.98c0,.17,.04,.35,.13,.55,.08,.2,.13,.35,.13,.46,1.31,.59,2.43,.88,3.36,.88h16.65c.59,.08,1.45,.27,2.6,.55,.03,0,.41,.17,1.13,.5,.56,.25,.99,.38,1.3,.38,.2,0,.36-.03,.5-.08,.89-1.06,1.34-2.35,1.34-3.86,0-.76-.15-1.85-.46-3.27-.31-1.43-.45-2.42-.42-2.98,0-.45-.08-1.33-.25-2.64-.2-1.54-.31-2.63-.34-3.27-.14-2.71-2.21-5.13-6.21-7.26,.53-.56,.94-.84,1.22-.84h6.25c-.36,0,.8-.03,3.48-.08,2.35-.08,4.15-.1,5.41-.04,1.26,.2,3.09,.48,5.5,.84Z"/><path class="cls-2" d="M292.02,67.49c-.1,1.68-.31,4.06-.63,7.13-.39,.84-.87,2.02-1.45,3.54-.13,.65-.37,1.55-.73,2.71-.13,.36-.55,.95-1.26,1.79-.84,1.03-1.52,1.55-2.04,1.55h-12.36c-.23,0-1.68-.05-4.36-.15-2.68-.1-4.14-.15-4.36-.15h-7.46c-.19,0-1.19-.09-2.98-.27-1.79-.18-2.8-.27-3.03-.27h-7.32l-.63-.68c.36-.45,1.76-1.42,4.22-2.91,1.68-1.07,2.52-2.36,2.52-3.88v-15.32c0-2.49,.39-5.83,1.16-10.03-.42-1.29-.5-2.91-.24-4.85-.58-.48-.87-1.16-.87-2.04,0-.06,.32-1.39,.97-3.98,.03-.23-.13-.68-.48-1.36-.45-.81-.7-1.23-.73-1.26-.23-.68-.32-1.74-.29-3.2v-3.3c-.1-1.1-.32-1.99-.68-2.67-.48-.94-1.28-1.68-2.38-2.23-.97-.42-1.94-.86-2.91-1.31,.45-1.07,.94-1.63,1.45-1.7,1,.13,2.44,.16,4.31,.1,2.07-.48,3.07-.73,3-.73h8.58c.13,0,1.11,.11,2.93,.34,1.83,.23,3.21,.36,4.15,.39,.39,0,3.62-.21,9.69-.63,1.39-.1,5.02,0,10.91,.29,.52,.36,.78,.79,.78,1.31,0,.29-.11,.71-.32,1.26-.21,.55-.31,.95-.31,1.21-.03,1.07-.37,4.59-1.02,10.57-.1,.19-.57,.5-1.41,.92-.19-.32-.79-2.05-1.79-5.19-.65-2.04-1.84-3.15-3.59-3.35-.71-.16-1.44-.32-2.18-.48-1-.23-1.78-.26-2.33-.1-1.42,.42-4.51,.47-9.26,.15-2.62-.19-4.59-.15-5.91,.15-.39,.1-.65,.47-.78,1.11,1.16,3.78,1.21,7.13,.15,10.03,.06-.19,.1,.61,.1,2.42,0,.45-.08,1.39-.24,2.81-.16,1.16-.19,2.1-.1,2.81,.03,.32,.34,.74,.92,1.26h18.28c.58-.19,1.15-.39,1.7-.58,.9-.32,1.54-.82,1.89-1.5,.32-.84,.92-2,1.79-3.49,1.03,0,1.7,.36,1.99,1.07-.13,1.84-.26,4.2-.39,7.08-.03,1.91-.26,4.7-.68,8.39-.13,.55-.78,.73-1.94,.53-.42-.78-1.16-1.79-2.23-3.05-1.97-1.49-3.76-2.23-5.38-2.23h-6.69c-.42,0-1.24-.08-2.47-.24-1.23-.16-2.15-.24-2.76-.24-1.71,0-2.79,.5-3.25,1.5-.52,1.13-.78,2-.78,2.62,0,.58,.11,1.68,.34,3.3,.23,1.62,.32,2.86,.29,3.73-.03,.45-.19,1.3-.46,2.54-.27,1.24-.41,2.22-.41,2.93,0,.55,.06,1.05,.19,1.5,.23,.78,1.11,1.71,2.64,2.81,1.53,1.1,2.85,1.73,3.95,1.89,.16,.06,.32,.13,.49,.19,.32,.1,.61,.15,.87,.15h8.05c1.81,0,3.33-.29,4.56-.87,1.71-.78,3.38-2.07,4.99-3.88,1.78-2,2.73-3.91,2.86-5.72,.84-.55,1.89-.65,3.15-.29Z"/><path class="cls-2" d="M67.19,163.14c-.09,.13-.33,.91-.73,2.33-.09,.4-.27,1.02-.53,1.86-.09,.27-.6,.97-1.53,2.13,.04,.13,.22,.24,.53,.33-.22,1.11-.73,2.7-1.53,4.78-.44,.75-1.42,.93-2.92,.53-.53-.18-1.33-.37-2.39-.6,.62,.04,.02,.07-1.79,.07h-3.85c-1.86,0-2.57-.07-2.13-.2-.18,.05-.42,.24-.73,.6,.09,.8,.13,1.88,.13,3.26v6.98c.04,.13,.11,.31,.2,.53,.13,.97,.13,1.86,0,2.66-.49,3.5-.55,5.76-.2,6.78,.09,.13,.33,.42,.73,.86,.4,.44,.53,.8,.4,1.06-.18,.49-.4,.8-.66,.93-.66,.35-1.64,.86-2.92,1.53-.22,0-.53,.02-.93,.07-2.22,.53-4.16,1.53-5.85,2.99-.09,.22-.24,.53-.47,.93-1.46,1.82-2.61,2.57-3.45,2.26-.49-.18-.98-.53-1.46-1.06-.09-.35-.04-.64,.13-.86,.09-.09,.27-.22,.53-.4,.31-.4,.66-.97,1.06-1.73,.09-.27,.22-.66,.4-1.2,.22-.31,.53-.75,.93-1.33,0-.31,.04-.8,.13-1.46,.09-.18,.18-.4,.27-.66,.13-.58,.31-1.44,.53-2.59,.13-.13,.27-.38,.4-.73,.04-.98,.18-2.41,.4-4.32,.13-1.02,.24-1.37,.33-1.06-.18-1.06-.29-1.51-.33-1.33,.13-.13,.29-.35,.47-.66,.13-.58,.09-1.24-.13-1.99-.93-2.7-.89-4.85,.13-6.45,.13-.27,.09-.73-.13-1.4-.09-.09-.18-.21-.27-.37-.09-.15-.13-.65-.13-1.49-.35-.18-.78-.29-1.26-.33-1.06-.09-2.3-.13-3.72-.13-.22,0-.44,.2-.66,.6-.44-.04-1.11-.07-1.99-.07-.13,.09-.31,.2-.53,.33-.49-.04-1.17-.04-2.06,0-.04-.22-.13-.37-.27-.46-.31-.13-.84-.29-1.59-.47-.09,0-.22,.06-.4,.17-.18,.11-.31,.19-.4,.23-1.59,.18-2.35,.27-2.26,.27h-5.45c-.66,.09-2.86,.29-6.58,.6-.4,.13-.97,.29-1.73,.46-1.29,.13-2.79,.07-4.52-.2-.84,0-1.84-.29-2.99-.86-.49-.89-.33-1.77,.47-2.66,.04-.31,.2-.8,.47-1.46,.44-.31,1.06-.75,1.86-1.33,.27-.27,1.17-1.22,2.72-2.86,.22-.35,.55-.78,1-1.26,.62-.4,1.46-1.06,2.52-1.99,.4-.62,1.04-1.46,1.93-2.52,.13-.13,.49-.2,1.06-.2,.18-.31,.44-.78,.8-1.4,.97-1.55,2.17-2.92,3.59-4.12,.18-.18,.73-.4,1.66-.67,.09-.13,.27-.33,.53-.6-.04-.22-.07-.58-.07-1.06,.84-.97,2.04-2.43,3.59-4.39,.18-.35,.47-.82,.86-1.39,.84-.8,2.04-1.99,3.59-3.59,1.24-1.42,2.95-3.41,5.12-5.98,.31-.66,.84-1.59,1.59-2.79,.75-.84,1.84-2.1,3.26-3.79,.57-.97,1.4-2.35,2.46-4.12,.62-.71,1.48-1.77,2.59-3.19,.18-.49,.66-1.33,1.46-2.53,.49-.71,1.22-1.64,2.19-2.79-.13,.13,.2,.2,1,.2,.13,0,.33-.04,.6-.13,.27-.09,.47-.11,.6-.07,.31,.18,.49,.4,.53,.67-.18,1.11-.18,1.84,0,2.19,.18,4.21,.27,6.07,.27,5.58-.09,1.59-.24,2.84-.47,3.72v6.31c0,.71-.4,1.02-1.2,.93,0,.18-.02,.55-.07,1.13s-.07,1.02-.07,1.33c.09,.09,.21,.23,.37,.43,.15,.2,.19,.56,.1,1.1-.31,3.1-.44,4.96-.4,5.58,.13,.22,.27,.53,.4,.93,.04,.22-.09,1.93-.4,5.12,.04,1.06,.04,2.66,0,4.78-.13,1.11-.38,2.75-.73,4.92l.47,1.99c-.04,.49-.11,1.24-.2,2.26,.4,.4,1.26,.44,2.59,.13,.89-.18,2.17-.29,3.85-.33,.13-.04,.31-.11,.53-.2,1.55,.09,2.88-.2,3.99-.86,.75-.62,1.82-1.57,3.19-2.86,.22-.04,.47-.02,.73,.07,.09-.75,.6-1.2,1.53-1.33,.22,.27,.66,.73,1.33,1.4Zm-23.06,4.58c-.35-.13-.82-.29-1.39-.47-.31,.04-.66,.07-1.06,.07-.44-.22-1.02-.55-1.73-1-.13-.13-.2-.38-.2-.73,0-.62,.11-1.75,.33-3.39,.22-1.99,.31-3.37,.27-4.12-.09-.8-.16-1.11-.2-.93,.04-.18,.2-.4,.47-.66-.04-.04-.09-.09-.13-.13-.44-.4-.6-.69-.47-.86,.22-.35,.33-.55,.33-.6v-4.85c0-1.42,.04-2.44,.13-3.06-.62-1.11-.93-1.55-.93-1.33v-3.46c0,.53,.15,.05,.47-1.46,.13-.4,.04-1.31-.27-2.72-.75,.75-1.82,1.95-3.19,3.59-.8,.8-1.88,1.95-3.26,3.45-.97,1.29-2.44,3.12-4.39,5.52-.93,.84-2.04,1.9-3.32,3.19-.58,.71-1.64,2.33-3.19,4.85-.27,.49-.64,.6-1.13,.33,.27,.4-.07,1.13-1,2.19-.58,.75-1.53,1.88-2.86,3.39-.35,.13-.8,.4-1.33,.8-.22,.31-.6,.8-1.13,1.46,1.68,.22,2.7,.31,3.06,.27,1.59-.13,2.28-.24,2.06-.33,.84,.35,1.4,.53,1.66,.53h11.63c3.1,0,5.23,.04,6.38,.13,.09,.05,.22,.11,.4,.2,.53-.04,1.22-.04,2.06,0,1.06,.09,1.7,.13,1.93,.13Z"/><path class="cls-2" d="M116.45,158.17c.07,1.23,.02,2.21-.15,2.94-.2,.56-.38,1.15-.55,1.74-.6,3.72-1.64,7.05-3.14,10.01-1,1.99-3.24,4.17-6.72,6.52-.17-.03,.56-.05,2.19-.05,.23,.3,.35,.56,.35,.8-4.71,1.99-8.18,2.99-10.41,2.99h-6.07c-1.73,0-2.99-.3-3.78-.9-.96-.76-1.86-1.29-2.69-1.59-1.33-.43-2.06-.68-2.19-.75l-2.54-2.24c-.27,0-.61-.12-1.05-.35-1.23-1.29-2.12-2.49-2.69-3.58l-1.44-4.03c-.53-.93-1.23-2.42-2.09-4.48-1.03-3.19-1.54-6.8-1.54-10.85,0-.2,.09-.63,.27-1.29,.18-.66,.27-1.16,.27-1.49,.2-6.77,2.44-11.73,6.72-14.89,.3-.07,.7-.18,1.19-.35,1.69-.8,3.04-1.58,4.03-2.34h-4.23c.23-.2,1.89-.83,4.98-1.89,3.39-1.19,5.24-1.79,5.58-1.79,.56,0,3.73,.28,9.51,.85,.96,.1,1.69,.25,2.19,.45,1.49,.53,2.57,1.03,3.24,1.49,1.33,.86,2.57,1.92,3.73,3.19,2.22,2.36,4.3,6.39,6.22,12.1,.1,.96,.31,2.44,.65,4.43,0,1.33,.05,3.12,.15,5.38Zm-7.72,3.83c.1-5.44-.3-9.78-1.2-12.99-.86-3.12-2.19-6.04-3.98-8.76-1.23-1.89-2.16-3-2.79-3.34-1.29-.5-3.1-1.24-5.43-2.24h-5.78c-3.75,2.06-6.64,5.13-8.66,9.21,0,.8-.03,1.94-.1,3.44-.13,.43-.27,1-.4,1.69-.5,6.07-.66,9.69-.5,10.85,.46,1.13,1.05,2.62,1.74,4.48,.33,1.63,.76,3.4,1.29,5.33,3.19,5.38,6.87,8.21,11.05,8.51,2.79,.2,4.93,.02,6.42-.55,1.96-.76,3.5-2.27,4.63-4.53,.63-.76,1.34-1.84,2.14-3.24,1-3.09,1.51-5.71,1.54-7.87Z"/><path class="cls-2" d="M182.14,166.97c-.09,.13-.33,.91-.73,2.33-.09,.4-.27,1.02-.53,1.86-.09,.27-.6,.97-1.53,2.13,.04,.13,.22,.24,.53,.33-.22,1.11-.73,2.7-1.53,4.78-.44,.75-1.42,.93-2.92,.53-.53-.18-1.33-.37-2.39-.6,.62,.04,.02,.07-1.79,.07h-3.85c-1.86,0-2.57-.07-2.13-.2-.18,.05-.42,.24-.73,.6,.09,.8,.13,1.88,.13,3.26v6.98c.04,.13,.11,.31,.2,.53,.13,.97,.13,1.86,0,2.66-.49,3.5-.55,5.76-.2,6.78,.09,.13,.33,.42,.73,.86,.4,.44,.53,.8,.4,1.06-.18,.49-.4,.8-.66,.93-.66,.35-1.64,.86-2.92,1.53-.22,0-.53,.02-.93,.07-2.22,.53-4.16,1.53-5.85,2.99-.09,.22-.24,.53-.47,.93-1.46,1.82-2.61,2.57-3.45,2.26-.49-.18-.98-.53-1.46-1.06-.09-.35-.04-.64,.13-.86,.09-.09,.27-.22,.53-.4,.31-.4,.66-.97,1.06-1.73,.09-.27,.22-.66,.4-1.2,.22-.31,.53-.75,.93-1.33,0-.31,.04-.8,.13-1.46,.09-.18,.18-.4,.27-.66,.13-.58,.31-1.44,.53-2.59,.13-.13,.27-.38,.4-.73,.04-.98,.18-2.41,.4-4.32,.13-1.02,.24-1.37,.33-1.06-.18-1.06-.29-1.51-.33-1.33,.13-.13,.29-.35,.47-.66,.13-.58,.09-1.24-.13-1.99-.93-2.7-.89-4.85,.13-6.45,.13-.27,.09-.73-.13-1.4-.09-.09-.18-.21-.27-.37-.09-.15-.13-.65-.13-1.49-.35-.18-.78-.29-1.26-.33-1.06-.09-2.3-.13-3.72-.13-.22,0-.44,.2-.66,.6-.44-.04-1.11-.07-1.99-.07-.13,.09-.31,.2-.53,.33-.49-.04-1.17-.04-2.06,0-.04-.22-.13-.37-.27-.46-.31-.13-.84-.29-1.59-.47-.09,0-.22,.06-.4,.17-.18,.11-.31,.19-.4,.23-1.59,.18-2.35,.27-2.26,.27h-5.45c-.66,.09-2.86,.29-6.58,.6-.4,.13-.97,.29-1.73,.46-1.29,.13-2.79,.07-4.52-.2-.84,0-1.84-.29-2.99-.86-.49-.89-.33-1.77,.47-2.66,.04-.31,.2-.8,.47-1.46,.44-.31,1.06-.75,1.86-1.33,.27-.27,1.17-1.22,2.72-2.86,.22-.35,.55-.78,1-1.26,.62-.4,1.46-1.06,2.52-1.99,.4-.62,1.04-1.46,1.93-2.52,.13-.13,.49-.2,1.06-.2,.18-.31,.44-.78,.8-1.4,.97-1.55,2.17-2.92,3.59-4.12,.18-.18,.73-.4,1.66-.67,.09-.13,.27-.33,.53-.6-.04-.22-.07-.58-.07-1.06,.84-.97,2.04-2.43,3.59-4.39,.18-.35,.47-.82,.86-1.39,.84-.8,2.04-1.99,3.59-3.59,1.24-1.42,2.95-3.41,5.12-5.98,.31-.66,.84-1.59,1.59-2.79,.75-.84,1.84-2.1,3.26-3.79,.57-.97,1.4-2.35,2.46-4.12,.62-.71,1.48-1.77,2.59-3.19,.18-.49,.66-1.33,1.46-2.53,.49-.71,1.22-1.64,2.19-2.79-.13,.13,.2,.2,1,.2,.13,0,.33-.04,.6-.13,.27-.09,.47-.11,.6-.07,.31,.18,.49,.4,.53,.67-.18,1.11-.18,1.84,0,2.19,.18,4.21,.27,6.07,.27,5.58-.09,1.59-.24,2.84-.47,3.72v6.31c0,.71-.4,1.02-1.2,.93,0,.18-.02,.55-.07,1.13s-.07,1.02-.07,1.33c.09,.09,.21,.23,.37,.43,.15,.2,.19,.56,.1,1.1-.31,3.1-.44,4.96-.4,5.58,.13,.22,.27,.53,.4,.93,.04,.22-.09,1.93-.4,5.12,.04,1.06,.04,2.66,0,4.78-.13,1.11-.38,2.75-.73,4.92l.47,1.99c-.04,.49-.11,1.24-.2,2.26,.4,.4,1.26,.44,2.59,.13,.89-.18,2.17-.29,3.85-.33,.13-.04,.31-.11,.53-.2,1.55,.09,2.88-.2,3.99-.86,.75-.62,1.82-1.57,3.19-2.86,.22-.04,.47-.02,.73,.07,.09-.75,.6-1.2,1.53-1.33,.22,.27,.66,.73,1.33,1.4Zm-23.06,4.58c-.35-.13-.82-.29-1.39-.47-.31,.04-.66,.07-1.06,.07-.44-.22-1.02-.55-1.73-1-.13-.13-.2-.38-.2-.73,0-.62,.11-1.75,.33-3.39,.22-1.99,.31-3.37,.27-4.12-.09-.8-.16-1.11-.2-.93,.04-.18,.2-.4,.47-.66-.04-.04-.09-.09-.13-.13-.44-.4-.6-.69-.47-.86,.22-.35,.33-.55,.33-.6v-4.85c0-1.42,.04-2.44,.13-3.06-.62-1.11-.93-1.55-.93-1.33v-3.46c0,.53,.15,.05,.47-1.46,.13-.4,.04-1.31-.27-2.72-.75,.75-1.82,1.95-3.19,3.59-.8,.8-1.88,1.95-3.26,3.45-.97,1.29-2.44,3.12-4.39,5.52-.93,.84-2.04,1.9-3.32,3.19-.58,.71-1.64,2.33-3.19,4.85-.27,.49-.64,.6-1.13,.33,.27,.4-.07,1.13-1,2.19-.58,.75-1.53,1.88-2.86,3.39-.35,.13-.8,.4-1.33,.8-.22,.31-.6,.8-1.13,1.46,1.68,.22,2.7,.31,3.06,.27,1.59-.13,2.28-.24,2.06-.33,.84,.35,1.4,.53,1.66,.53h11.63c3.1,0,5.23,.04,6.38,.13,.09,.05,.22,.11,.4,.2,.53-.04,1.22-.04,2.06,0,1.06,.09,1.7,.13,1.93,.13Z"/><path class="cls-2" d="M251.45,179.67s-.02,.5-.05,1.6c-.07,.94-.08,1.65-.05,2.13,.13,1.52-.02,3.59-.44,6.21-.03,.06-.19,.52-.49,1.36-.19,.61-.23,1.1-.1,1.45,.68,1.97,1.02,3.28,1.02,3.93,0,1.1-.65,1.65-1.94,1.65h-53.37c-1.45-.39-2.02-1.37-1.7-2.96,.32-.26,.74-.66,1.26-1.21,.58-1.42,1.29-3.39,2.13-5.91,.39-1.65,1.65-4.7,3.78-9.16,1.94-4.04,2.94-6.75,3.01-8.14,.55-.9,1.31-2.26,2.28-4.07l5.67-12.12c.42-1.87,1.45-4.72,3.1-8.53,.03-.32,.16-.78,.39-1.36,.84-.23,4.22-.34,10.13-.34,.03-.26-.19-.56-.68-.92-1.55-1.07-2.73-1.7-3.54-1.89-.58,0-1.44-.05-2.57-.15-.58-.06-1.02-.4-1.31-1.02,.71-.97,1.55-2.39,2.52-4.27,.48-1.71,1.32-4.17,2.52-7.37,.65-.68,1.39-1.7,2.23-3.05,.03-.9,.24-2.18,.63-3.83,.87-1.29,2.08-3.34,3.64-6.16,.19-1.33,.65-3.38,1.36-6.16,.23-.71,.95-1.83,2.18-3.34,1.1-1.33,1.65-2.26,1.65-2.81,0-.71-.63-1.23-1.89-1.55h-5.91c.16,0-.73,.1-2.67,.29-1.81,.16-3.15,.21-4.02,.15-.55-.03-1.2-.27-1.94-.73-.07-.06-.55-.66-1.45-1.79-.68-.9-1.33-1.29-1.94-1.16,0,.23,.03,.78,.1,1.65,.06,.74,.08,1.34,.05,1.79-.58,.52-1.16,.82-1.75,.92-1.26,.19-2.79,.64-4.58,1.33-1.79,.7-3.19,1.92-4.19,3.66-2.26,4.04-3.39,6.66-3.39,7.85,0,.26,.06,.68,.17,1.26,.11,.58,.17,1.02,.17,1.31,0,.65-.22,1.22-.65,1.72-.44,.5-1.04,.75-1.82,.75-.87,0-1.47-.42-1.79-1.26-.03-.06,.06-1.03,.29-2.91,.42-3.2,.5-5.8,.24-7.8-.03-.26-.19-.73-.46-1.43-.27-.7-.41-1.22-.41-1.58s.18-.9,.53-1.65c.36-.74,.55-1.34,.58-1.79-.16-1.26-.11-3.17,.15-5.72,.19-.49,.92-.87,2.18-1.16,1.32-.32,3.07-.27,5.24,.15l41.74-.24c.61-.16,1.24-.1,1.89,.17,.65,.27,1.02,.74,1.11,1.38,.19,1.68,.08,3.2-.34,4.56-.58,1.75-1.29,3.25-2.13,4.51-.61,.61-1.36,1.57-2.23,2.86-.06,.19-.19,1.21-.39,3.05-.29,.42-.71,1.13-1.26,2.13-.55,1.81-1.39,4.35-2.52,7.61-.94,1.23-2.17,3.12-3.68,5.67-.13,.91-.42,2.23-.87,3.97-.45,1.75-1.44,3.99-2.96,6.74-1.65,3.04-2.59,4.85-2.81,5.43-1.71,3.23-3.47,6.72-5.28,10.47,.03,.52,.02,1.21-.05,2.08-.52,.71-1.18,1.75-1.99,3.1-.1,.65-.31,1.6-.63,2.86-.36,.55-.78,1.34-1.26,2.38-.23,1.04-.68,2.62-1.36,4.75-.71,1.1-1.7,2.91-2.96,5.43-.78,2.33-2.28,5.9-4.51,10.71-.39,1.16-1.2,2.96-2.42,5.38,.65,.61,1.45,.97,2.42,1.07h10.28c.19,0,.49-.06,.9-.17,.4-.11,.65-.19,.75-.22,1,0,2.58-.05,4.75-.15,.71-.26,1.81-.6,3.3-1.02,.68-.03,1.79-.16,3.34-.39,1.81-.39,3.81-1.94,6.01-4.65,.26-.58,.69-1.46,1.31-2.62,.87-1.16,1.92-3.04,3.15-5.62-.03-1.52,.18-3.75,.63-6.69,.26-.61,.76-.92,1.5-.92,1.39,0,2.21,.57,2.47,1.7v8.82Z"/><path class="cls-2" d="M300.66,144.21c0,1.51-.04,2.66-.12,3.46-.27,.61-.54,1.55-.83,2.82-.05,1.27-.33,2.62-.84,4.06-.42,.53-1.05,1.39-1.87,2.58-.21,.8-.79,1.94-1.75,3.42-.77,.77-1.94,1.96-3.5,3.58-.24,.08-.54,.21-.91,.4-.34,.32-.95,.78-1.83,1.39-4.35,2.31-8.48,3.62-12.4,3.94h-5.25c.05,0-.05-.08-.32-.24-2.86-.08-5.01-.48-6.44-1.19-.37-.08-.87-.21-1.51-.4-1.06-.42-2.65-1.18-4.77-2.27-2.54-1.62-4.93-3.9-7.16-6.84-1.25-1.64-2.35-3.76-3.3-6.36-.9-2.41-1.41-4.44-1.51-6.08-.19-2.81-.08-5.57,.32-8.27,.16-.34,.37-.83,.64-1.47,.16-.79,.44-1.95,.83-3.46,.58-.93,1.35-2.28,2.31-4.06,.13-.29,.2-.64,.2-1.03,.13-.13,.4-.09,.8,.12,.13-.37,.13-.9,0-1.59,.34-.11,.83-.33,1.47-.68,.21-.56,.72-1.23,1.51-2.03,1.59-.85,3.99-2.09,7.2-3.74,.82-.4,1.87-.74,3.14-1.03,3.23-.74,5.43-1.11,6.6-1.11h3.1c2.41,0,4.48,.23,6.2,.68,.93,.27,2.97,1.01,6.12,2.23,.66,.42,1.71,1.09,3.14,1.99,2.07,1.33,3.95,3.14,5.64,5.45,1.51,2.07,2.49,3.97,2.94,5.72,.21,.29,.48,.73,.79,1.31,.58,1.59,.91,3.95,.99,7.08,0,.11,.06,.35,.18,.74s.18,.68,.18,.89Zm-8.83,1.03c-.24-3.34-.89-6.39-1.95-9.14-1.35-3.55-2.94-6.35-4.77-8.39-2.6-2.86-5.43-4.55-8.51-5.05-2.92-.48-4.92-.64-6-.48-2.12,.27-3.92,.73-5.41,1.39-.19,.08-1.39,.78-3.62,2.11-.13,.27-.37,.58-.72,.95-.21,.05-.45,.13-.72,.24-.53,.69-1.19,1.62-1.99,2.78-.11,.32-.28,.77-.52,1.35-.4,.64-.82,1.39-1.27,2.27-.24,.98-.61,2.45-1.11,4.41,.03,.74,.01,1.87-.04,3.38,0,.08-.05,.25-.16,.52-.11,.27-.15,.45-.12,.56,.37,1.72,.9,4.11,1.59,7.16-.08,.21-.13,.46-.16,.76,.19,.37,.45,.87,.8,1.51,.03,.35,.11,.8,.24,1.35,1.11,2.23,1.7,3.37,1.75,3.42,.8,1.38,1.88,2.69,3.26,3.94,.03,.03,.2,.57,.52,1.63,.11,.03,.56,.11,1.35,.24,1.3,1.19,2.29,2,2.98,2.43,1.96,1.17,5.51,1.52,10.65,1.07,.42-.13,.98-.3,1.67-.52,.87-.19,2.13-.62,3.78-1.31,.37-.34,.86-.76,1.47-1.23,2.65-1.64,4.23-3.67,4.73-6.08,.26-.32,.58-.77,.95-1.35,.05-.5,.13-1.1,.24-1.79,.16-.16,.32-.41,.48-.76,.05-.61,.19-1.93,.4-3.98,.19-1.64,.25-2.77,.2-3.38Z"/><path class="cls-2" d="M369.06,115.3c-.61,.1-1.5,.26-2.67,.48-1.23,.36-2.2,1.13-2.91,2.33-1,1.78-1.62,3.52-1.84,5.23-.42,2.97-.63,5.4-.63,7.27,0,.13,.06,1.53,.19,4.19,.13,2.67,.19,4.08,.19,4.24v7.71c0,.1,.06,.42,.17,.97s.15,.97,.12,1.26c-.19,3.91-.29,6.11-.29,6.59,0,.26,.06,.78,.19,1.58,.13,.79,.19,1.25,.19,1.38v14.88c0,.19,.02,.3,.07,.32s.07,.04,.07,.07c-2.26,.39-3.28,.58-3.05,.58-1.36,0-2.2-.15-2.52-.44-2.23-2.07-5.53-5.69-9.89-10.86-.78-1.03-1.94-2.52-3.49-4.46-1.36-1.32-3.2-3.26-5.53-5.82-.58-.97-1.55-2.41-2.91-4.31-2.91-3.52-7.03-8.71-12.36-15.56-.71-.55-1.68-1.42-2.91-2.62-.03-.23-.13-.55-.29-.97-.39-.61-1.04-1.54-1.94-2.76-.68,.32-1.02,.82-1.02,1.5,0-.03,.23,1.62,.68,4.94,.03,.19,0,.49-.1,.9-.1,.4-.15,.67-.15,.8,0,1.29,.06,3.29,.17,5.99s.17,4.02,.17,3.95v6.79c0,.19,.02,1.84,.07,4.94,.05,3.1,.07,4.73,.07,4.9,0,6.75,2.41,10.31,7.22,10.67,.1,0,.22,.14,.36,.41s.25,.44,.32,.51c.03,.58-.05,1.07-.24,1.45h-16.92c-.13,0-.72,.09-1.77,.27-1.05,.18-1.66,.27-1.82,.27h-.78c-.29-.29-.44-.47-.44-.53,0-1.13,.36-1.89,1.07-2.28,.84-.26,2.07-.74,3.68-1.45,1.58-.87,2.54-2.26,2.86-4.17,.84-4.69,1.02-7.54,.53-8.58-.23-.45-.26-.84-.1-1.16l.39-.49-.29-.44c-.03-.36-.02-.98,.05-1.87,.06-.89,.1-1.53,.1-1.92,0-.45-.09-1.23-.27-2.33-.18-1.1-.27-1.87-.27-2.33,0,.48,.06-.52,.19-3.01-.03-.1-.18-.42-.44-.97l.24-.24c.13-.19,.21-.55,.24-1.07,.06-.1,.06-.21,0-.34-.45-3.65-.68-6.11-.68-7.37v-6.69c-.23-3.81-.34-6.14-.34-6.98,0-.1,.06-.31,.17-.63,.11-.32,.15-.6,.12-.82-2.46-2.58-5.54-3.75-9.26-3.49l-.24-.24v-1.6c.36-.42,1.23-.63,2.62-.63,.16,0,1.46,.07,3.9,.19,2.44,.13,3.74,.19,3.9,.19,.13,0,1.33-.06,3.61-.19s3.5-.19,3.66-.19c.78,0,1.23,.03,1.36,.1,.45,.16,1.39,1.21,2.81,3.15,2.68,3.78,6.72,9.4,12.12,16.87,1.1,1.39,2.75,3.46,4.94,6.21-.39,2.84,.02,4.27,1.21,4.27,.13,0,.39-.1,.78-.29,.39-.19,.66-.29,.82-.29,.42,0,.99,.6,1.7,1.79,.36,.61,.69,1.21,1.02,1.79,2.36,1.91,3.83,3.36,4.41,4.36,.13,.55,.36,1.36,.68,2.42,.26,.36,.47,.53,.63,.53s.32-.06,.48-.19c.16-.13,.26-.19,.29-.19,.87,.94,2.05,2.31,3.54,4.12,.55-.26,.82-.5,.82-.73,0-.16-.07-.44-.19-.82-.13-.39-.19-.66-.19-.82v-5.19c0-.16-.02-.4-.07-.7-.05-.31-.07-.7-.07-1.19,.13-.61,.23-1.49,.29-2.62-.16-.94-.37-2.31-.63-4.12-.07-.26-.03-.74,.1-1.46,.13-.71,.19-1.11,.19-1.21,0-.13-.05-.39-.15-.8-.1-.4-.15-.69-.15-.85-.07-.58-.07-1.37,0-2.38,.06-1.26,.1-2.1,.1-2.52,0-.16-.07-.44-.22-.82-.15-.39-.23-.68-.27-.87l.19-1.31c.03-.26-.02-.76-.17-1.5-.15-.74-.22-1.31-.22-1.7,0-.13,.06-.42,.19-.87,.13-.45,.18-.78,.15-.97-.19-1.32-.53-3.26-1.02-5.82-.45-1.68-2.3-2.79-5.53-3.34,.06-.55,0-1.13-.19-1.75,.36-.29,1.5-.44,3.44-.44l8.82,.34c-.19,0,1.26-.1,4.36-.29,1.84-.13,3.28-.02,4.31,.34v1.79Zm-17.98,37.03l-.44,.53-.29-.29,.24-1.02c.55,.52,.71,.78,.48,.78Z"/><path class="cls-2" d="M411.51,161.45c-.08,1.47-.27,3.54-.55,6.22-.34,.73-.76,1.76-1.27,3.09-.11,.56-.32,1.35-.63,2.37-.11,.31-.48,.83-1.1,1.57-.73,.9-1.33,1.35-1.78,1.35h-10.79c-.2,0-1.47-.04-3.81-.13-2.34-.09-3.61-.13-3.81-.13h-6.52c-.17,0-1.04-.08-2.6-.23-1.57-.16-2.45-.23-2.65-.23h-6.39l-.55-.59c.31-.39,1.54-1.24,3.68-2.54,1.47-.93,2.2-2.06,2.2-3.39v-13.37c0-2.17,.34-5.09,1.02-8.76-.37-1.13-.44-2.54-.21-4.23-.51-.42-.76-1.02-.76-1.78,0-.06,.28-1.21,.85-3.47,.03-.2-.11-.59-.42-1.19-.4-.71-.61-1.07-.64-1.1-.2-.59-.28-1.52-.25-2.79v-2.88c-.08-.96-.28-1.73-.59-2.33-.42-.82-1.11-1.47-2.07-1.95-.85-.37-1.69-.75-2.54-1.14,.39-.93,.82-1.42,1.27-1.48,.87,.11,2.13,.14,3.77,.08,1.8-.42,2.68-.64,2.62-.64h7.49c.11,0,.97,.1,2.56,.3,1.59,.2,2.8,.31,3.62,.34,.34,0,3.16-.18,8.46-.55,1.21-.09,4.39,0,9.52,.25,.45,.31,.68,.69,.68,1.14,0,.25-.09,.62-.28,1.1-.18,.48-.28,.83-.28,1.06-.03,.93-.32,4.01-.89,9.23-.08,.17-.49,.44-1.23,.8-.17-.28-.69-1.79-1.57-4.53-.56-1.78-1.61-2.75-3.13-2.92-.62-.14-1.26-.28-1.9-.42-.87-.2-1.55-.23-2.03-.08-1.24,.37-3.94,.41-8.08,.13-2.28-.17-4.01-.13-5.16,.13-.34,.09-.57,.41-.68,.97,1.02,3.3,1.06,6.22,.13,8.76,.06-.17,.09,.54,.09,2.12,0,.4-.07,1.21-.21,2.45-.14,1.02-.17,1.83-.08,2.45,.03,.28,.3,.65,.8,1.1h15.96c.51-.17,1-.34,1.48-.51,.79-.28,1.34-.72,1.65-1.31,.28-.73,.8-1.75,1.57-3.05,.9,0,1.48,.31,1.74,.93-.11,1.61-.23,3.67-.34,6.18-.03,1.66-.23,4.1-.59,7.32-.11,.48-.68,.64-1.69,.47-.37-.68-1.02-1.57-1.95-2.67-1.72-1.3-3.29-1.95-4.7-1.95h-5.84c-.37,0-1.09-.07-2.16-.21-1.07-.14-1.88-.21-2.41-.21-1.5,0-2.44,.44-2.84,1.31-.45,.99-.68,1.75-.68,2.28s.1,1.47,.3,2.88c.2,1.41,.28,2.5,.25,3.26-.03,.4-.16,1.14-.4,2.22-.24,1.09-.36,1.94-.36,2.56,0,.48,.06,.92,.17,1.31,.2,.68,.97,1.5,2.31,2.45,1.34,.96,2.49,1.51,3.45,1.65,.14,.06,.28,.11,.42,.17,.28,.08,.54,.13,.76,.13h7.03c1.58,0,2.91-.25,3.98-.76,1.5-.68,2.95-1.81,4.36-3.39,1.55-1.75,2.38-3.41,2.5-4.99,.73-.48,1.65-.56,2.75-.25Z"/></g><g><path class="cls-1" d="M204.07,17.92l-.29,.58c-.39,.29-1.2,.39-2.42,.29l-.48-.48c.48-.84,.69-1.36,.63-1.55-.84-2.36-1.88-4.36-3.1-6.01-1.49-2.04-3.57-3.25-6.25-3.64-.36-.19-.84-.42-1.45-.68-.61-.16-1.6-.15-2.96,.05-1.45,.23-2.47,.27-3.05,.15-.23-.03-.65,.07-1.26,.29-.74,.26-1.24,.39-1.5,.39-.87,.19-2.21,.4-4.02,.63-1,0-2.47,.03-4.41,.1-.39,.03-.87,.35-1.45,.95-.58,.6-.92,1.11-1.02,1.53,.06,.74,.1,1.81,.1,3.2-.39,1.16-.82,2.84-1.31,5.04-.23,1.87-.07,3.93,.48,6.16,.1,1.29,.26,3.25,.48,5.87l-.19,10.18c.39,1.2,.58,1.99,.58,2.38,0,.58-.21,1.21-.63,1.89-.48,.78-.74,1.23-.78,1.36,.16,.29,.6,.55,1.31,.78,.23,.36,.31,.71,.24,1.07-.03,.19-.47,.73-1.31,1.6,.29,.52,.6,1.33,.92,2.42,.13,1.62-.02,2.89-.44,3.83-.48,1.13-.73,2.26-.73,3.39,0,.71,.14,1.71,.41,2.98,.27,1.28,.41,2.25,.41,2.93,0,.94-.19,1.86-.58,2.76-.16,.42-.23,.73-.19,.92,.32,.32,.68,.53,1.07,.63,.29,.32,.39,.73,.29,1.21-.32,1.33-.71,3.33-1.16,6.01,0,.07,.23,3.28,.68,9.65-.07,1.13-.08,2.79-.05,4.99,.19,1.71,.79,3.51,1.79,5.38,.35,.23,.78,.55,1.26,.97,.45,.87,1.28,2.07,2.47,3.59,.68,.58,1.47,.97,2.38,1.16,1.07,.1,2.65,.27,4.75,.53,.32,.36,.35,.79,.1,1.31h-13.48c-.16,0-.94-.1-2.33-.29-1.39-.19-2.17-.29-2.33-.29h-8.77c-.07,0-.74,.13-2.01,.39-1.28,.26-2.22,.39-2.84,.39-4.52,0-7.16-.07-7.9-.19-.1-.16-.15-.32-.15-.48,0-.84,1-1.39,3.01-1.65,.9-.06,2.23-.44,3.98-1.11,2.29-1.78,3.86-3.75,4.7-5.91,.45-1.16,.71-2.57,.78-4.22,.1-2.46,.15-3.72,.15-3.78,.19-.61,.48-1.49,.87-2.62-.19-.48-.29-1.16-.29-2.04,.65-1.29,.97-2.8,.97-4.51,0-1.62-.24-2.96-.73-4.02-.16-.32-.21-1.15-.15-2.47,.1-2.04,.34-5.25,.73-9.65,0-.13,.1-.65,.29-1.55,.16-.71,.23-1.37,.19-1.99-.13-.19-.29-.47-.48-.82-.03-.13,.04-.36,.22-.7,.18-.34,.27-.57,.27-.7,0-5.07-.03-7.43-.1-7.08,.23-1.58,.32-2.44,.29-2.57-.16-.19-.32-.53-.48-1.02,.06-.87,.08-2.21,.05-4.02-.1-1.68-.02-3.22,.24-4.6,.16-.97,.44-1.59,.82-1.87,.39-.27,.87-.41,1.45-.41,.42,0,1.1,.15,2.04,.44,.94,.29,1.65,.44,2.13,.44,.74,0,1.42-.27,2.04-.82-.19-.55-.84-.95-1.94-1.21-.87-.16-1.75-.34-2.62-.53-.16-.23-.5-.52-1.02-.87-.68,0-1.68-.37-3.01-1.11,.06-.61,.1-2.44,.1-5.48,0-.19-.04-.7-.12-1.53-.08-.82-.12-1.45-.12-1.87,0-.45,.03-1.36,.1-2.71,.03-1.13,.03-2.04,0-2.71,0-.35-.16-.58-.48-.68-.45-.19-.76-.35-.92-.48-.03-.06-.05-.15-.05-.24,0-.23,.19-.52,.56-.87,.37-.35,.57-.61,.61-.78,.26-.81,.34-2.46,.24-4.94-.52-.48-1.15-.73-1.89-.73-.19,0-.48,.02-.85,.05-.37,.03-.65,.05-.85,.05-1.07,0-1.91-.55-2.52-1.65-.71,.61-1.89,1.31-3.54,2.08-.36,.07-.73,.1-1.12,.1-.68,0-1.63-.12-2.86-.36-1.23-.24-2.13-.36-2.71-.36-.94,0-1.78,.21-2.52,.63-.16,.1-1.44,.4-3.83,.92-.29,.06-.9,.55-1.84,1.45-1.36,1.62-3.52,4.19-6.5,7.71-.13,.16-.45,1.05-.97,2.67-.42,1.29-.97,1.94-1.65,1.94-.36,0-.76-.15-1.21-.44-.03-.39,.11-1.05,.44-1.99,.42-1.1,.65-1.73,.68-1.89,.32-1.94,.86-4.88,1.6-8.82,.03-.06,.15-1.66,.34-4.8,.13-2.04,.6-3.51,1.41-4.41,2.46-.42,4.28-.58,5.48-.48,.45,.23,1.11,.48,1.99,.78,.19,.03,.53-.04,1.02-.22,.48-.18,.81-.28,.97-.32,.48,.07,1.23,.1,2.23,.1,.45-.19,1.18-.42,2.18-.68,.68-.13,1.63-.1,2.86,.1,1.49,.26,2.49,.39,3.01,.39,.16,0,.52-.06,1.09-.19,.56-.13,.95-.19,1.14-.19h7.56c.1,0,.41-.06,.95-.19,.53-.13,.9-.16,1.09-.1,.52,.19,1.18,.42,1.99,.68,6.01,.32,9.89,.36,11.63,.1-.13,.03,.55,.13,2.04,.29,.26,.03,1.58-.06,3.97-.29,.42,.07,1.02,.1,1.79,.1,.13-.03,.36-.15,.7-.36,.34-.21,.59-.31,.75-.31,2.71,0,5.59-.06,8.63-.19,.65-.03,2.05,.03,4.22,.19,.19,0,.56,.12,1.12,.36,.55,.24,.97,.36,1.26,.36,.55-.03,2.44-.34,5.67-.92,.71,.52,1.05,1.36,1.02,2.52-.1,.97-.19,1.94-.29,2.91,0,.52,.02,1.37,.05,2.57,.06,1.29,.1,1.97,.1,2.04v4.27s.06,.47,.19,1.31c.13,.84,.19,1.6,.19,2.28Z"/><path class="cls-1" d="M235.95,24.05c0,.31-.17,.59-.5,.84-1.17,.31-2.18,.73-3.02,1.26-.48,.31-1.04,.95-1.7,1.93-.66,.98-.99,1.72-.99,2.22,0,2.52,.03,3.51,.08,2.98-.22,.67-.48,1.65-.76,2.94,0,.34,.18,1.78,.55,4.32,.11,.87,.17,2,.17,3.4,0,1.65-.09,3.66-.27,6.02-.18,2.36-.27,3.46-.27,3.29v6.21c0,6.32,.74,10.7,2.22,13.13,.28,.48,.89,.96,1.85,1.47,.95,.5,1.76,.78,2.43,.84-.17,.28-.48,.7-.92,1.26h-19.59c0-.17-.04-.43-.13-.78s-.13-.59-.13-.73c.61-.28,1.5-.7,2.64-1.26,.87-.42,1.68-1.71,2.43-3.86,.64-1.87,.97-3.34,.97-4.4v-6.12c0-.42-.1-1.57-.29-3.44-.14-1.43-.14-2.57,0-3.44,.11-.64-.13-1.73-.71-3.27-1.37,1.01-3.44,1.76-6.21,2.27-1.45,.28-2.71,.34-3.77,.17-1.45-.25-2.22-.38-2.31-.38h-10.57c-.64,.36-1.47,1.04-2.47,2.01-.42,.67-.56,1.62-.42,2.85,.22,.48,.47,1.16,.76,2.06-.08-.39-.18,.38-.29,2.31-.03,.14,.07,2.34,.29,6.59,.22,4.59,1.8,7.16,4.74,7.72,.11,.03,.71,.25,1.8,.67-.95,1.03-2.03,1.55-3.23,1.55-.34,0-.74-.04-1.22-.13-.56-.08-.91-.13-1.05-.13l-16.53-.25c.03-.5,.67-1.01,1.93-1.51,1.48-.62,2.61-1.52,3.4-2.73,.59-.92,.98-2.66,1.17-5.2,.22-2.66,.25-4.92,.08-6.79-.11-.22-.28-.53-.5-.92-.03-2.15,.1-5.35,.38-9.61,.03-.14,.18-.59,.46-1.34,.25-.64,.36-1.17,.34-1.59-.31-.48-.7-1.3-1.17-2.47,.08,.34,.18-.59,.29-2.77,.03-.45-.02-1.1-.15-1.97-.13-.87-.19-1.36-.19-1.47v-6.75c0-.89-.63-1.97-1.89-3.23s-2.5-2.08-3.73-2.47c.03-.06,.34-.53,.92-1.43,1.01-.03,2.57-.13,4.7-.29,2.01-.17,3.06-.25,3.15-.25h7.97c.36,0,.74-.04,1.13-.13,.39-.08,.66-.13,.8-.13,.56,0,1.54,.55,2.94,1.64-.98,.48-1.96,.96-2.94,1.47-1.2,.64-2.08,1.36-2.64,2.14-.9,1.23-1.34,3.54-1.34,6.92v8.98c0,.17,.04,.35,.13,.55,.08,.2,.13,.35,.13,.46,1.31,.59,2.43,.88,3.36,.88h16.65c.59,.08,1.45,.27,2.6,.55,.03,0,.41,.17,1.13,.5,.56,.25,.99,.38,1.3,.38,.2,0,.36-.03,.5-.08,.89-1.06,1.34-2.35,1.34-3.86,0-.76-.15-1.85-.46-3.27-.31-1.43-.45-2.42-.42-2.98,0-.45-.08-1.33-.25-2.64-.2-1.54-.31-2.63-.34-3.27-.14-2.71-2.21-5.13-6.21-7.26,.53-.56,.94-.84,1.22-.84h6.25c-.36,0,.8-.03,3.48-.08,2.35-.08,4.15-.1,5.41-.04,1.26,.2,3.09,.48,5.5,.84Z"/><path class="cls-1" d="M288.89,64.21c-.1,1.68-.31,4.06-.63,7.13-.39,.84-.87,2.02-1.45,3.54-.13,.65-.37,1.55-.73,2.71-.13,.36-.55,.95-1.26,1.79-.84,1.03-1.52,1.55-2.04,1.55h-12.36c-.23,0-1.68-.05-4.36-.15-2.68-.1-4.14-.15-4.36-.15h-7.46c-.19,0-1.19-.09-2.98-.27-1.79-.18-2.8-.27-3.03-.27h-7.32l-.63-.68c.36-.45,1.76-1.42,4.22-2.91,1.68-1.07,2.52-2.36,2.52-3.88v-15.32c0-2.49,.39-5.83,1.16-10.03-.42-1.29-.5-2.91-.24-4.85-.58-.48-.87-1.16-.87-2.04,0-.06,.32-1.39,.97-3.98,.03-.23-.13-.68-.48-1.36-.45-.81-.7-1.23-.73-1.26-.23-.68-.32-1.74-.29-3.2v-3.3c-.1-1.1-.32-1.99-.68-2.67-.48-.94-1.28-1.68-2.38-2.23-.97-.42-1.94-.86-2.91-1.31,.45-1.07,.94-1.63,1.45-1.7,1,.13,2.44,.16,4.31,.1,2.07-.48,3.07-.73,3-.73h8.58c.13,0,1.11,.11,2.93,.34,1.83,.23,3.21,.36,4.15,.39,.39,0,3.62-.21,9.69-.63,1.39-.1,5.02,0,10.91,.29,.52,.36,.78,.79,.78,1.31,0,.29-.11,.71-.32,1.26-.21,.55-.31,.95-.31,1.21-.03,1.07-.37,4.59-1.02,10.57-.1,.19-.57,.5-1.41,.92-.19-.32-.79-2.05-1.79-5.19-.65-2.04-1.84-3.15-3.59-3.35-.71-.16-1.44-.32-2.18-.48-1-.23-1.78-.26-2.33-.1-1.42,.42-4.51,.47-9.26,.15-2.62-.19-4.59-.15-5.91,.15-.39,.1-.65,.47-.78,1.11,1.16,3.78,1.21,7.13,.15,10.03,.06-.19,.1,.61,.1,2.42,0,.45-.08,1.39-.24,2.81-.16,1.16-.19,2.1-.1,2.81,.03,.32,.34,.74,.92,1.26h18.28c.58-.19,1.15-.39,1.7-.58,.9-.32,1.54-.82,1.89-1.5,.32-.84,.92-2,1.79-3.49,1.03,0,1.7,.36,1.99,1.07-.13,1.84-.26,4.2-.39,7.08-.03,1.91-.26,4.7-.68,8.39-.13,.55-.78,.73-1.94,.53-.42-.78-1.16-1.79-2.23-3.05-1.97-1.49-3.76-2.23-5.38-2.23h-6.69c-.42,0-1.24-.08-2.47-.24-1.23-.16-2.15-.24-2.76-.24-1.71,0-2.79,.5-3.25,1.5-.52,1.13-.78,2-.78,2.62,0,.58,.11,1.68,.34,3.3,.23,1.62,.32,2.86,.29,3.73-.03,.45-.19,1.3-.46,2.54-.27,1.24-.41,2.22-.41,2.93,0,.55,.06,1.05,.19,1.5,.23,.78,1.11,1.71,2.64,2.81,1.53,1.1,2.85,1.73,3.95,1.89,.16,.06,.32,.13,.49,.19,.32,.1,.61,.15,.87,.15h8.05c1.81,0,3.33-.29,4.56-.87,1.71-.78,3.38-2.07,4.99-3.88,1.78-2,2.73-3.91,2.86-5.72,.84-.55,1.89-.65,3.15-.29Z"/><path class="cls-1" d="M64.07,159.86c-.09,.13-.33,.91-.73,2.33-.09,.4-.27,1.02-.53,1.86-.09,.27-.6,.97-1.53,2.13,.04,.13,.22,.24,.53,.33-.22,1.11-.73,2.7-1.53,4.78-.44,.75-1.42,.93-2.92,.53-.53-.18-1.33-.37-2.39-.6,.62,.04,.02,.07-1.79,.07h-3.85c-1.86,0-2.57-.07-2.13-.2-.18,.05-.42,.24-.73,.6,.09,.8,.13,1.88,.13,3.26v6.98c.04,.13,.11,.31,.2,.53,.13,.97,.13,1.86,0,2.66-.49,3.5-.55,5.76-.2,6.78,.09,.13,.33,.42,.73,.86,.4,.44,.53,.8,.4,1.06-.18,.49-.4,.8-.66,.93-.66,.35-1.64,.86-2.92,1.53-.22,0-.53,.02-.93,.07-2.22,.53-4.16,1.53-5.85,2.99-.09,.22-.24,.53-.47,.93-1.46,1.82-2.61,2.57-3.45,2.26-.49-.18-.98-.53-1.46-1.06-.09-.35-.04-.64,.13-.86,.09-.09,.27-.22,.53-.4,.31-.4,.66-.97,1.06-1.73,.09-.27,.22-.66,.4-1.2,.22-.31,.53-.75,.93-1.33,0-.31,.04-.8,.13-1.46,.09-.18,.18-.4,.27-.66,.13-.58,.31-1.44,.53-2.59,.13-.13,.27-.38,.4-.73,.04-.98,.18-2.41,.4-4.32,.13-1.02,.24-1.37,.33-1.06-.18-1.06-.29-1.51-.33-1.33,.13-.13,.29-.35,.47-.66,.13-.58,.09-1.24-.13-1.99-.93-2.7-.89-4.85,.13-6.45,.13-.27,.09-.73-.13-1.4-.09-.09-.18-.21-.27-.37-.09-.15-.13-.65-.13-1.49-.35-.18-.78-.29-1.26-.33-1.06-.09-2.3-.13-3.72-.13-.22,0-.44,.2-.66,.6-.44-.04-1.11-.07-1.99-.07-.13,.09-.31,.2-.53,.33-.49-.04-1.17-.04-2.06,0-.04-.22-.13-.37-.27-.46-.31-.13-.84-.29-1.59-.47-.09,0-.22,.06-.4,.17-.18,.11-.31,.19-.4,.23-1.59,.18-2.35,.27-2.26,.27h-5.45c-.66,.09-2.86,.29-6.58,.6-.4,.13-.97,.29-1.73,.46-1.29,.13-2.79,.07-4.52-.2-.84,0-1.84-.29-2.99-.86-.49-.89-.33-1.77,.47-2.66,.04-.31,.2-.8,.47-1.46,.44-.31,1.06-.75,1.86-1.33,.27-.27,1.17-1.22,2.72-2.86,.22-.35,.55-.78,1-1.26,.62-.4,1.46-1.06,2.52-1.99,.4-.62,1.04-1.46,1.93-2.52,.13-.13,.49-.2,1.06-.2,.18-.31,.44-.78,.8-1.4,.97-1.55,2.17-2.92,3.59-4.12,.18-.18,.73-.4,1.66-.67,.09-.13,.27-.33,.53-.6-.04-.22-.07-.58-.07-1.06,.84-.97,2.04-2.43,3.59-4.39,.18-.35,.47-.82,.86-1.39,.84-.8,2.04-1.99,3.59-3.59,1.24-1.42,2.95-3.41,5.12-5.98,.31-.66,.84-1.59,1.59-2.79,.75-.84,1.84-2.1,3.26-3.79,.57-.97,1.4-2.35,2.46-4.12,.62-.71,1.48-1.77,2.59-3.19,.18-.49,.66-1.33,1.46-2.53,.49-.71,1.22-1.64,2.19-2.79-.13,.13,.2,.2,1,.2,.13,0,.33-.04,.6-.13,.27-.09,.47-.11,.6-.07,.31,.18,.49,.4,.53,.67-.18,1.11-.18,1.84,0,2.19,.18,4.21,.27,6.07,.27,5.58-.09,1.59-.24,2.84-.47,3.72v6.31c0,.71-.4,1.02-1.2,.93,0,.18-.02,.55-.07,1.13s-.07,1.02-.07,1.33c.09,.09,.21,.23,.37,.43,.15,.2,.19,.56,.1,1.1-.31,3.1-.44,4.96-.4,5.58,.13,.22,.27,.53,.4,.93,.04,.22-.09,1.93-.4,5.12,.04,1.06,.04,2.66,0,4.78-.13,1.11-.38,2.75-.73,4.92l.47,1.99c-.04,.49-.11,1.24-.2,2.26,.4,.4,1.26,.44,2.59,.13,.89-.18,2.17-.29,3.85-.33,.13-.04,.31-.11,.53-.2,1.55,.09,2.88-.2,3.99-.86,.75-.62,1.82-1.57,3.19-2.86,.22-.04,.47-.02,.73,.07,.09-.75,.6-1.2,1.53-1.33,.22,.27,.66,.73,1.33,1.4Zm-23.06,4.58c-.35-.13-.82-.29-1.39-.47-.31,.04-.66,.07-1.06,.07-.44-.22-1.02-.55-1.73-1-.13-.13-.2-.38-.2-.73,0-.62,.11-1.75,.33-3.39,.22-1.99,.31-3.37,.27-4.12-.09-.8-.16-1.11-.2-.93,.04-.18,.2-.4,.47-.66-.04-.04-.09-.09-.13-.13-.44-.4-.6-.69-.47-.86,.22-.35,.33-.55,.33-.6v-4.85c0-1.42,.04-2.44,.13-3.06-.62-1.11-.93-1.55-.93-1.33v-3.46c0,.53,.15,.05,.47-1.46,.13-.4,.04-1.31-.27-2.72-.75,.75-1.82,1.95-3.19,3.59-.8,.8-1.88,1.95-3.26,3.45-.97,1.29-2.44,3.12-4.39,5.52-.93,.84-2.04,1.9-3.32,3.19-.58,.71-1.64,2.33-3.19,4.85-.27,.49-.64,.6-1.13,.33,.27,.4-.07,1.13-1,2.19-.58,.75-1.53,1.88-2.86,3.39-.35,.13-.8,.4-1.33,.8-.22,.31-.6,.8-1.13,1.46,1.68,.22,2.7,.31,3.06,.27,1.59-.13,2.28-.24,2.06-.33,.84,.35,1.4,.53,1.66,.53h11.63c3.1,0,5.23,.04,6.38,.13,.09,.05,.22,.11,.4,.2,.53-.04,1.22-.04,2.06,0,1.06,.09,1.7,.13,1.93,.13Z"/><path class="cls-1" d="M113.32,154.9c.07,1.23,.02,2.21-.15,2.94-.2,.56-.38,1.15-.55,1.74-.6,3.72-1.64,7.05-3.14,10.01-1,1.99-3.24,4.17-6.72,6.52-.17-.03,.56-.05,2.19-.05,.23,.3,.35,.56,.35,.8-4.71,1.99-8.18,2.99-10.41,2.99h-6.07c-1.73,0-2.99-.3-3.78-.9-.96-.76-1.86-1.29-2.69-1.59-1.33-.43-2.06-.68-2.19-.75l-2.54-2.24c-.27,0-.61-.12-1.05-.35-1.23-1.29-2.12-2.49-2.69-3.58l-1.44-4.03c-.53-.93-1.23-2.42-2.09-4.48-1.03-3.19-1.54-6.8-1.54-10.85,0-.2,.09-.63,.27-1.29,.18-.66,.27-1.16,.27-1.49,.2-6.77,2.44-11.73,6.72-14.89,.3-.07,.7-.18,1.19-.35,1.69-.8,3.04-1.58,4.03-2.34h-4.23c.23-.2,1.89-.83,4.98-1.89,3.39-1.19,5.24-1.79,5.58-1.79,.56,0,3.73,.28,9.51,.85,.96,.1,1.69,.25,2.19,.45,1.49,.53,2.57,1.03,3.24,1.49,1.33,.86,2.57,1.92,3.73,3.19,2.22,2.36,4.3,6.39,6.22,12.1,.1,.96,.31,2.44,.65,4.43,0,1.33,.05,3.12,.15,5.38Zm-7.72,3.83c.1-5.44-.3-9.78-1.2-12.99-.86-3.12-2.19-6.04-3.98-8.76-1.23-1.89-2.16-3-2.79-3.34-1.29-.5-3.1-1.24-5.43-2.24h-5.78c-3.75,2.06-6.64,5.13-8.66,9.21,0,.8-.03,1.94-.1,3.44-.13,.43-.27,1-.4,1.69-.5,6.07-.66,9.69-.5,10.85,.46,1.13,1.05,2.62,1.74,4.48,.33,1.63,.76,3.4,1.29,5.33,3.19,5.38,6.87,8.21,11.05,8.51,2.79,.2,4.93,.02,6.42-.55,1.96-.76,3.5-2.27,4.63-4.53,.63-.76,1.34-1.84,2.14-3.24,1-3.09,1.51-5.71,1.54-7.87Z"/><path class="cls-1" d="M179.01,163.69c-.09,.13-.33,.91-.73,2.33-.09,.4-.27,1.02-.53,1.86-.09,.27-.6,.97-1.53,2.13,.04,.13,.22,.24,.53,.33-.22,1.11-.73,2.7-1.53,4.78-.44,.75-1.42,.93-2.92,.53-.53-.18-1.33-.37-2.39-.6,.62,.04,.02,.07-1.79,.07h-3.85c-1.86,0-2.57-.07-2.13-.2-.18,.05-.42,.24-.73,.6,.09,.8,.13,1.88,.13,3.26v6.98c.04,.13,.11,.31,.2,.53,.13,.97,.13,1.86,0,2.66-.49,3.5-.55,5.76-.2,6.78,.09,.13,.33,.42,.73,.86,.4,.44,.53,.8,.4,1.06-.18,.49-.4,.8-.66,.93-.66,.35-1.64,.86-2.92,1.53-.22,0-.53,.02-.93,.07-2.22,.53-4.16,1.53-5.85,2.99-.09,.22-.24,.53-.47,.93-1.46,1.82-2.61,2.57-3.45,2.26-.49-.18-.98-.53-1.46-1.06-.09-.35-.04-.64,.13-.86,.09-.09,.27-.22,.53-.4,.31-.4,.66-.97,1.06-1.73,.09-.27,.22-.66,.4-1.2,.22-.31,.53-.75,.93-1.33,0-.31,.04-.8,.13-1.46,.09-.18,.18-.4,.27-.66,.13-.58,.31-1.44,.53-2.59,.13-.13,.27-.38,.4-.73,.04-.98,.18-2.41,.4-4.32,.13-1.02,.24-1.37,.33-1.06-.18-1.06-.29-1.51-.33-1.33,.13-.13,.29-.35,.47-.66,.13-.58,.09-1.24-.13-1.99-.93-2.7-.89-4.85,.13-6.45,.13-.27,.09-.73-.13-1.4-.09-.09-.18-.21-.27-.37-.09-.15-.13-.65-.13-1.49-.35-.18-.78-.29-1.26-.33-1.06-.09-2.3-.13-3.72-.13-.22,0-.44,.2-.66,.6-.44-.04-1.11-.07-1.99-.07-.13,.09-.31,.2-.53,.33-.49-.04-1.17-.04-2.06,0-.04-.22-.13-.37-.27-.46-.31-.13-.84-.29-1.59-.47-.09,0-.22,.06-.4,.17-.18,.11-.31,.19-.4,.23-1.59,.18-2.35,.27-2.26,.27h-5.45c-.66,.09-2.86,.29-6.58,.6-.4,.13-.97,.29-1.73,.46-1.29,.13-2.79,.07-4.52-.2-.84,0-1.84-.29-2.99-.86-.49-.89-.33-1.77,.47-2.66,.04-.31,.2-.8,.47-1.46,.44-.31,1.06-.75,1.86-1.33,.27-.27,1.17-1.22,2.72-2.86,.22-.35,.55-.78,1-1.26,.62-.4,1.46-1.06,2.52-1.99,.4-.62,1.04-1.46,1.93-2.52,.13-.13,.49-.2,1.06-.2,.18-.31,.44-.78,.8-1.4,.97-1.55,2.17-2.92,3.59-4.12,.18-.18,.73-.4,1.66-.67,.09-.13,.27-.33,.53-.6-.04-.22-.07-.58-.07-1.06,.84-.97,2.04-2.43,3.59-4.39,.18-.35,.47-.82,.86-1.39,.84-.8,2.04-1.99,3.59-3.59,1.24-1.42,2.95-3.41,5.12-5.98,.31-.66,.84-1.59,1.59-2.79,.75-.84,1.84-2.1,3.26-3.79,.57-.97,1.4-2.35,2.46-4.12,.62-.71,1.48-1.77,2.59-3.19,.18-.49,.66-1.33,1.46-2.53,.49-.71,1.22-1.64,2.19-2.79-.13,.13,.2,.2,1,.2,.13,0,.33-.04,.6-.13,.27-.09,.47-.11,.6-.07,.31,.18,.49,.4,.53,.67-.18,1.11-.18,1.84,0,2.19,.18,4.21,.27,6.07,.27,5.58-.09,1.59-.24,2.84-.47,3.72v6.31c0,.71-.4,1.02-1.2,.93,0,.18-.02,.55-.07,1.13s-.07,1.02-.07,1.33c.09,.09,.21,.23,.37,.43,.15,.2,.19,.56,.1,1.1-.31,3.1-.44,4.96-.4,5.58,.13,.22,.27,.53,.4,.93,.04,.22-.09,1.93-.4,5.12,.04,1.06,.04,2.66,0,4.78-.13,1.11-.38,2.75-.73,4.92l.47,1.99c-.04,.49-.11,1.24-.2,2.26,.4,.4,1.26,.44,2.59,.13,.89-.18,2.17-.29,3.85-.33,.13-.04,.31-.11,.53-.2,1.55,.09,2.88-.2,3.99-.86,.75-.62,1.82-1.57,3.19-2.86,.22-.04,.47-.02,.73,.07,.09-.75,.6-1.2,1.53-1.33,.22,.27,.66,.73,1.33,1.4Zm-23.06,4.58c-.35-.13-.82-.29-1.39-.47-.31,.04-.66,.07-1.06,.07-.44-.22-1.02-.55-1.73-1-.13-.13-.2-.38-.2-.73,0-.62,.11-1.75,.33-3.39,.22-1.99,.31-3.37,.27-4.12-.09-.8-.16-1.11-.2-.93,.04-.18,.2-.4,.47-.66-.04-.04-.09-.09-.13-.13-.44-.4-.6-.69-.47-.86,.22-.35,.33-.55,.33-.6v-4.85c0-1.42,.04-2.44,.13-3.06-.62-1.11-.93-1.55-.93-1.33v-3.46c0,.53,.15,.05,.47-1.46,.13-.4,.04-1.31-.27-2.72-.75,.75-1.82,1.95-3.19,3.59-.8,.8-1.88,1.95-3.26,3.45-.97,1.29-2.44,3.12-4.39,5.52-.93,.84-2.04,1.9-3.32,3.19-.58,.71-1.64,2.33-3.19,4.85-.27,.49-.64,.6-1.13,.33,.27,.4-.07,1.13-1,2.19-.58,.75-1.53,1.88-2.86,3.39-.35,.13-.8,.4-1.33,.8-.22,.31-.6,.8-1.13,1.46,1.68,.22,2.7,.31,3.06,.27,1.59-.13,2.28-.24,2.06-.33,.84,.35,1.4,.53,1.66,.53h11.63c3.1,0,5.23,.04,6.38,.13,.09,.05,.22,.11,.4,.2,.53-.04,1.22-.04,2.06,0,1.06,.09,1.7,.13,1.93,.13Z"/><path class="cls-1" d="M248.33,176.4s-.02,.5-.05,1.6c-.07,.94-.08,1.65-.05,2.13,.13,1.52-.02,3.59-.44,6.21-.03,.06-.19,.52-.49,1.36-.19,.61-.23,1.1-.1,1.45,.68,1.97,1.02,3.28,1.02,3.93,0,1.1-.65,1.65-1.94,1.65h-53.37c-1.45-.39-2.02-1.37-1.7-2.96,.32-.26,.74-.66,1.26-1.21,.58-1.42,1.29-3.39,2.13-5.91,.39-1.65,1.65-4.7,3.78-9.16,1.94-4.04,2.94-6.75,3.01-8.14,.55-.9,1.31-2.26,2.28-4.07l5.67-12.12c.42-1.87,1.45-4.72,3.1-8.53,.03-.32,.16-.78,.39-1.36,.84-.23,4.22-.34,10.13-.34,.03-.26-.19-.56-.68-.92-1.55-1.07-2.73-1.7-3.54-1.89-.58,0-1.44-.05-2.57-.15-.58-.06-1.02-.4-1.31-1.02,.71-.97,1.55-2.39,2.52-4.27,.48-1.71,1.32-4.17,2.52-7.37,.65-.68,1.39-1.7,2.23-3.05,.03-.9,.24-2.18,.63-3.83,.87-1.29,2.08-3.34,3.64-6.16,.19-1.33,.65-3.38,1.36-6.16,.23-.71,.95-1.83,2.18-3.34,1.1-1.33,1.65-2.26,1.65-2.81,0-.71-.63-1.23-1.89-1.55h-5.91c.16,0-.73,.1-2.67,.29-1.81,.16-3.15,.21-4.02,.15-.55-.03-1.2-.27-1.94-.73-.07-.06-.55-.66-1.45-1.79-.68-.9-1.33-1.29-1.94-1.16,0,.23,.03,.78,.1,1.65,.06,.74,.08,1.34,.05,1.79-.58,.52-1.16,.82-1.75,.92-1.26,.19-2.79,.64-4.58,1.33-1.79,.7-3.19,1.92-4.19,3.66-2.26,4.04-3.39,6.66-3.39,7.85,0,.26,.06,.68,.17,1.26,.11,.58,.17,1.02,.17,1.31,0,.65-.22,1.22-.65,1.72-.44,.5-1.04,.75-1.82,.75-.87,0-1.47-.42-1.79-1.26-.03-.06,.06-1.03,.29-2.91,.42-3.2,.5-5.8,.24-7.8-.03-.26-.19-.73-.46-1.43-.27-.7-.41-1.22-.41-1.58s.18-.9,.53-1.65c.36-.74,.55-1.34,.58-1.79-.16-1.26-.11-3.17,.15-5.72,.19-.49,.92-.87,2.18-1.16,1.32-.32,3.07-.27,5.24,.15l41.74-.24c.61-.16,1.24-.1,1.89,.17,.65,.27,1.02,.74,1.11,1.38,.19,1.68,.08,3.2-.34,4.56-.58,1.75-1.29,3.25-2.13,4.51-.61,.61-1.36,1.57-2.23,2.86-.06,.19-.19,1.21-.39,3.05-.29,.42-.71,1.13-1.26,2.13-.55,1.81-1.39,4.35-2.52,7.61-.94,1.23-2.17,3.12-3.68,5.67-.13,.91-.42,2.23-.87,3.97-.45,1.75-1.44,3.99-2.96,6.74-1.65,3.04-2.59,4.85-2.81,5.43-1.71,3.23-3.47,6.72-5.28,10.47,.03,.52,.02,1.21-.05,2.08-.52,.71-1.18,1.75-1.99,3.1-.1,.65-.31,1.6-.63,2.86-.36,.55-.78,1.34-1.26,2.38-.23,1.04-.68,2.62-1.36,4.75-.71,1.1-1.7,2.91-2.96,5.43-.78,2.33-2.28,5.9-4.51,10.71-.39,1.16-1.2,2.96-2.42,5.38,.65,.61,1.45,.97,2.42,1.07h10.28c.19,0,.49-.06,.9-.17,.4-.11,.65-.19,.75-.22,1,0,2.58-.05,4.75-.15,.71-.26,1.81-.6,3.3-1.02,.68-.03,1.79-.16,3.34-.39,1.81-.39,3.81-1.94,6.01-4.65,.26-.58,.69-1.46,1.31-2.62,.87-1.16,1.92-3.04,3.15-5.62-.03-1.52,.18-3.75,.63-6.69,.26-.61,.76-.92,1.5-.92,1.39,0,2.21,.57,2.47,1.7v8.82Z"/><path class="cls-1" d="M297.54,140.94c0,1.51-.04,2.66-.12,3.46-.27,.61-.54,1.55-.83,2.82-.05,1.27-.33,2.62-.84,4.06-.42,.53-1.05,1.39-1.87,2.58-.21,.8-.79,1.94-1.75,3.42-.77,.77-1.94,1.96-3.5,3.58-.24,.08-.54,.21-.91,.4-.34,.32-.95,.78-1.83,1.39-4.35,2.31-8.48,3.62-12.4,3.94h-5.25c.05,0-.05-.08-.32-.24-2.86-.08-5.01-.48-6.44-1.19-.37-.08-.87-.21-1.51-.4-1.06-.42-2.65-1.18-4.77-2.27-2.54-1.62-4.93-3.9-7.16-6.84-1.25-1.64-2.35-3.76-3.3-6.36-.9-2.41-1.41-4.44-1.51-6.08-.19-2.81-.08-5.57,.32-8.27,.16-.34,.37-.83,.64-1.47,.16-.79,.44-1.95,.83-3.46,.58-.93,1.35-2.28,2.31-4.06,.13-.29,.2-.64,.2-1.03,.13-.13,.4-.09,.8,.12,.13-.37,.13-.9,0-1.59,.34-.11,.83-.33,1.47-.68,.21-.56,.72-1.23,1.51-2.03,1.59-.85,3.99-2.09,7.2-3.74,.82-.4,1.87-.74,3.14-1.03,3.23-.74,5.43-1.11,6.6-1.11h3.1c2.41,0,4.48,.23,6.2,.68,.93,.27,2.97,1.01,6.12,2.23,.66,.42,1.71,1.09,3.14,1.99,2.07,1.33,3.95,3.14,5.64,5.45,1.51,2.07,2.49,3.97,2.94,5.72,.21,.29,.48,.73,.79,1.31,.58,1.59,.91,3.95,.99,7.08,0,.11,.06,.35,.18,.74s.18,.68,.18,.89Zm-8.83,1.03c-.24-3.34-.89-6.39-1.95-9.14-1.35-3.55-2.94-6.35-4.77-8.39-2.6-2.86-5.43-4.55-8.51-5.05-2.92-.48-4.92-.64-6-.48-2.12,.27-3.92,.73-5.41,1.39-.19,.08-1.39,.78-3.62,2.11-.13,.27-.37,.58-.72,.95-.21,.05-.45,.13-.72,.24-.53,.69-1.19,1.62-1.99,2.78-.11,.32-.28,.77-.52,1.35-.4,.64-.82,1.39-1.27,2.27-.24,.98-.61,2.45-1.11,4.41,.03,.74,.01,1.87-.04,3.38,0,.08-.05,.25-.16,.52-.11,.27-.15,.45-.12,.56,.37,1.72,.9,4.11,1.59,7.16-.08,.21-.13,.46-.16,.76,.19,.37,.45,.87,.8,1.51,.03,.35,.11,.8,.24,1.35,1.11,2.23,1.7,3.37,1.75,3.42,.8,1.38,1.88,2.69,3.26,3.94,.03,.03,.2,.57,.52,1.63,.11,.03,.56,.11,1.35,.24,1.3,1.19,2.29,2,2.98,2.43,1.96,1.17,5.51,1.52,10.65,1.07,.42-.13,.98-.3,1.67-.52,.87-.19,2.13-.62,3.78-1.31,.37-.34,.86-.76,1.47-1.23,2.65-1.64,4.23-3.67,4.73-6.08,.26-.32,.58-.77,.95-1.35,.05-.5,.13-1.1,.24-1.79,.16-.16,.32-.41,.48-.76,.05-.61,.19-1.93,.4-3.98,.19-1.64,.25-2.77,.2-3.38Z"/><path class="cls-1" d="M365.93,112.02c-.61,.1-1.5,.26-2.67,.48-1.23,.36-2.2,1.13-2.91,2.33-1,1.78-1.62,3.52-1.84,5.23-.42,2.97-.63,5.4-.63,7.27,0,.13,.06,1.53,.19,4.19,.13,2.67,.19,4.08,.19,4.24v7.71c0,.1,.06,.42,.17,.97s.15,.97,.12,1.26c-.19,3.91-.29,6.11-.29,6.59,0,.26,.06,.78,.19,1.58,.13,.79,.19,1.25,.19,1.38v14.88c0,.19,.02,.3,.07,.32s.07,.04,.07,.07c-2.26,.39-3.28,.58-3.05,.58-1.36,0-2.2-.15-2.52-.44-2.23-2.07-5.53-5.69-9.89-10.86-.78-1.03-1.94-2.52-3.49-4.46-1.36-1.32-3.2-3.26-5.53-5.82-.58-.97-1.55-2.41-2.91-4.31-2.91-3.52-7.03-8.71-12.36-15.56-.71-.55-1.68-1.42-2.91-2.62-.03-.23-.13-.55-.29-.97-.39-.61-1.04-1.54-1.94-2.76-.68,.32-1.02,.82-1.02,1.5,0-.03,.23,1.62,.68,4.94,.03,.19,0,.49-.1,.9-.1,.4-.15,.67-.15,.8,0,1.29,.06,3.29,.17,5.99s.17,4.02,.17,3.95v6.79c0,.19,.02,1.84,.07,4.94,.05,3.1,.07,4.73,.07,4.9,0,6.75,2.41,10.31,7.22,10.67,.1,0,.22,.14,.36,.41s.25,.44,.32,.51c.03,.58-.05,1.07-.24,1.45h-16.92c-.13,0-.72,.09-1.77,.27-1.05,.18-1.66,.27-1.82,.27h-.78c-.29-.29-.44-.47-.44-.53,0-1.13,.36-1.89,1.07-2.28,.84-.26,2.07-.74,3.68-1.45,1.58-.87,2.54-2.26,2.86-4.17,.84-4.69,1.02-7.54,.53-8.58-.23-.45-.26-.84-.1-1.16l.39-.49-.29-.44c-.03-.36-.02-.98,.05-1.87,.06-.89,.1-1.53,.1-1.92,0-.45-.09-1.23-.27-2.33-.18-1.1-.27-1.87-.27-2.33,0,.48,.06-.52,.19-3.01-.03-.1-.18-.42-.44-.97l.24-.24c.13-.19,.21-.55,.24-1.07,.06-.1,.06-.21,0-.34-.45-3.65-.68-6.11-.68-7.37v-6.69c-.23-3.81-.34-6.14-.34-6.98,0-.1,.06-.31,.17-.63,.11-.32,.15-.6,.12-.82-2.46-2.58-5.54-3.75-9.26-3.49l-.24-.24v-1.6c.36-.42,1.23-.63,2.62-.63,.16,0,1.46,.07,3.9,.19,2.44,.13,3.74,.19,3.9,.19,.13,0,1.33-.06,3.61-.19s3.5-.19,3.66-.19c.78,0,1.23,.03,1.36,.1,.45,.16,1.39,1.21,2.81,3.15,2.68,3.78,6.72,9.4,12.12,16.87,1.1,1.39,2.75,3.46,4.94,6.21-.39,2.84,.02,4.27,1.21,4.27,.13,0,.39-.1,.78-.29,.39-.19,.66-.29,.82-.29,.42,0,.99,.6,1.7,1.79,.36,.61,.69,1.21,1.02,1.79,2.36,1.91,3.83,3.36,4.41,4.36,.13,.55,.36,1.36,.68,2.42,.26,.36,.47,.53,.63,.53s.32-.06,.48-.19c.16-.13,.26-.19,.29-.19,.87,.94,2.05,2.31,3.54,4.12,.55-.26,.82-.5,.82-.73,0-.16-.07-.44-.19-.82-.13-.39-.19-.66-.19-.82v-5.19c0-.16-.02-.4-.07-.7-.05-.31-.07-.7-.07-1.19,.13-.61,.23-1.49,.29-2.62-.16-.94-.37-2.31-.63-4.12-.07-.26-.03-.74,.1-1.46,.13-.71,.19-1.11,.19-1.21,0-.13-.05-.39-.15-.8-.1-.4-.15-.69-.15-.85-.07-.58-.07-1.37,0-2.38,.06-1.26,.1-2.1,.1-2.52,0-.16-.07-.44-.22-.82-.15-.39-.23-.68-.27-.87l.19-1.31c.03-.26-.02-.76-.17-1.5-.15-.74-.22-1.31-.22-1.7,0-.13,.06-.42,.19-.87,.13-.45,.18-.78,.15-.97-.19-1.32-.53-3.26-1.02-5.82-.45-1.68-2.3-2.79-5.53-3.34,.06-.55,0-1.13-.19-1.75,.36-.29,1.5-.44,3.44-.44l8.82,.34c-.19,0,1.26-.1,4.36-.29,1.84-.13,3.28-.02,4.31,.34v1.79Zm-17.98,37.03l-.44,.53-.29-.29,.24-1.02c.55,.52,.71,.78,.48,.78Z"/><path class="cls-1" d="M408.38,158.18c-.08,1.47-.27,3.54-.55,6.22-.34,.73-.76,1.76-1.27,3.09-.11,.56-.32,1.35-.63,2.37-.11,.31-.48,.83-1.1,1.57-.73,.9-1.33,1.35-1.78,1.35h-10.79c-.2,0-1.47-.04-3.81-.13-2.34-.09-3.61-.13-3.81-.13h-6.52c-.17,0-1.04-.08-2.6-.23-1.57-.16-2.45-.23-2.65-.23h-6.39l-.55-.59c.31-.39,1.54-1.24,3.68-2.54,1.47-.93,2.2-2.06,2.2-3.39v-13.37c0-2.17,.34-5.09,1.02-8.76-.37-1.13-.44-2.54-.21-4.23-.51-.42-.76-1.02-.76-1.78,0-.06,.28-1.21,.85-3.47,.03-.2-.11-.59-.42-1.19-.4-.71-.61-1.07-.64-1.1-.2-.59-.28-1.52-.25-2.79v-2.88c-.08-.96-.28-1.73-.59-2.33-.42-.82-1.11-1.47-2.07-1.95-.85-.37-1.69-.75-2.54-1.14,.39-.93,.82-1.42,1.27-1.48,.87,.11,2.13,.14,3.77,.08,1.8-.42,2.68-.64,2.62-.64h7.49c.11,0,.97,.1,2.56,.3,1.59,.2,2.8,.31,3.62,.34,.34,0,3.16-.18,8.46-.55,1.21-.09,4.39,0,9.52,.25,.45,.31,.68,.69,.68,1.14,0,.25-.09,.62-.28,1.1-.18,.48-.28,.83-.28,1.06-.03,.93-.32,4.01-.89,9.23-.08,.17-.49,.44-1.23,.8-.17-.28-.69-1.79-1.57-4.53-.56-1.78-1.61-2.75-3.13-2.92-.62-.14-1.26-.28-1.9-.42-.87-.2-1.55-.23-2.03-.08-1.24,.37-3.94,.41-8.08,.13-2.28-.17-4.01-.13-5.16,.13-.34,.09-.57,.41-.68,.97,1.02,3.3,1.06,6.22,.13,8.76,.06-.17,.09,.54,.09,2.12,0,.4-.07,1.21-.21,2.45-.14,1.02-.17,1.83-.08,2.45,.03,.28,.3,.65,.8,1.1h15.96c.51-.17,1-.34,1.48-.51,.79-.28,1.34-.72,1.65-1.31,.28-.73,.8-1.75,1.57-3.05,.9,0,1.48,.31,1.74,.93-.11,1.61-.23,3.67-.34,6.18-.03,1.66-.23,4.1-.59,7.32-.11,.48-.68,.64-1.69,.47-.37-.68-1.02-1.57-1.95-2.67-1.72-1.3-3.29-1.95-4.7-1.95h-5.84c-.37,0-1.09-.07-2.16-.21-1.07-.14-1.88-.21-2.41-.21-1.5,0-2.44,.44-2.84,1.31-.45,.99-.68,1.75-.68,2.28s.1,1.47,.3,2.88c.2,1.41,.28,2.5,.25,3.26-.03,.4-.16,1.14-.4,2.22-.24,1.09-.36,1.94-.36,2.56,0,.48,.06,.92,.17,1.31,.2,.68,.97,1.5,2.31,2.45,1.34,.96,2.49,1.51,3.45,1.65,.14,.06,.28,.11,.42,.17,.28,.08,.54,.13,.76,.13h7.03c1.58,0,2.91-.25,3.98-.76,1.5-.68,2.95-1.81,4.36-3.39,1.55-1.75,2.38-3.41,2.5-4.99,.73-.48,1.65-.56,2.75-.25Z"/></g></svg>