<?xml version="1.0" encoding="UTF-8"?><svg id="Layer_1" xmlns="http://www.w3.org/2000/svg" viewBox="0 0 197.64 309.45"><defs><style>.cls-1{fill:#999998;}.cls-2{fill:#babab9;}.cls-3{fill:#bbbbbc;}.cls-4{fill:#d1d2d3;}.cls-5{fill:#c3c2c5;}.cls-6{fill:#595959;}</style></defs><rect class="cls-5" x="15.96" width="170.14" height="292.05"/><rect class="cls-4" x="24.74" y="11.54" width="151.74" height="273.11"/><rect class="cls-1" x="15.96" y="288.43" width="170.14" height="17.39"/><rect class="cls-2" y="292.05" width="197.64" height="17.39"/><path class="cls-3" d="M95.16,269.59H38.44v-111.2h56.72v111.2Zm-49.72-7h42.72v-97.2H45.44v97.2Z"/><path class="cls-3" d="M169.99,269.59h-56.72v-111.2h56.72v111.2Zm-49.72-7h42.72v-97.2h-42.72v97.2Z"/><path class="cls-3" d="M95.16,137.8H38.44V26.6h56.72v111.2Zm-49.72-7h42.72V33.6H45.44v97.2Z"/><path class="cls-3" d="M169.99,137.8h-56.72V26.6h56.72v111.2Zm-49.72-7h42.72V33.6h-42.72v97.2Z"/><rect class="cls-6" x="27.2" y="134.3" width="9.02" height="33.19" rx="4.51" ry="4.51"/><ellipse class="cls-6" cx="30.22" cy="140.44" rx="5.48" ry="6.14"/><ellipse class="cls-6" cx="104.21" cy="75.09" rx="5.7" ry="11.59"/></svg>