<?xml version="1.0" encoding="UTF-8"?><svg id="Layer_1" xmlns="http://www.w3.org/2000/svg" viewBox="0 0 243.12 72.12"><defs><style>.cls-1{fill:#efefef;}</style></defs><g><path class="cls-1" d="M36.57,24.34H11.24v13.63h23.32c1.72,0,3,.39,3.84,1.15,.84,.77,1.27,1.79,1.27,3.05s-.42,2.29-1.25,3.09-2.12,1.19-3.86,1.19H11.24v15.79h26.2c1.77,0,3.1,.41,3.99,1.23,.9,.82,1.34,1.91,1.34,3.27s-.45,2.38-1.34,3.2c-.9,.82-2.23,1.23-3.99,1.23H6.89c-2.45,0-4.21-.54-5.28-1.63-1.07-1.08-1.61-2.84-1.61-5.26V22.56c0-1.62,.24-2.93,.72-3.96,.48-1.02,1.23-1.77,2.25-2.23,1.02-.47,2.33-.7,3.92-.7h29.68c1.79,0,3.12,.4,3.99,1.19,.87,.79,1.31,1.84,1.31,3.12s-.44,2.37-1.31,3.16c-.87,.8-2.2,1.19-3.99,1.19Z"/><path class="cls-1" d="M87.68,40.32H48.84v-9.92h38.84v9.92Zm0,16.81H48.84v-9.92h38.84v9.92Z"/><path class="cls-1" d="M115.66,62.81l-8.9-35.36v38.31c0,2.12-.47,3.71-1.42,4.77-.95,1.06-2.2,1.59-3.77,1.59s-2.75-.52-3.71-1.57c-.96-1.05-1.44-2.64-1.44-4.79V21.84c0-2.42,.63-4.06,1.89-4.9,1.26-.85,2.97-1.27,5.11-1.27h3.48c2.09,0,3.62,.19,4.56,.57,.95,.38,1.65,1.06,2.1,2.04s.97,2.59,1.55,4.81l8.06,30.4,8.06-30.4c.58-2.22,1.1-3.82,1.55-4.81s1.15-1.67,2.1-2.04c.95-.38,2.47-.57,4.56-.57h3.48c2.15,0,3.85,.42,5.11,1.27,1.26,.85,1.89,2.48,1.89,4.9v43.92c0,2.12-.47,3.71-1.42,4.77-.95,1.06-2.21,1.59-3.8,1.59-1.49,0-2.71-.53-3.67-1.59-.96-1.06-1.44-2.65-1.44-4.77V27.45l-8.9,35.36c-.58,2.3-1.05,3.98-1.42,5.05-.37,1.07-1.04,2.05-2.03,2.93-.98,.88-2.35,1.32-4.09,1.32-1.31,0-2.42-.28-3.33-.85-.91-.57-1.62-1.29-2.12-2.18-.5-.88-.9-1.86-1.19-2.93s-.59-2.19-.89-3.35Z"/><path class="cls-1" d="M208.79,53.64c0,1.77-.44,3.68-1.31,5.74-.87,2.06-2.24,4.08-4.11,6.06-1.87,1.98-4.25,3.59-7.16,4.83s-6.28,1.85-10.15,1.85c-2.93,0-5.59-.28-7.99-.83-2.4-.56-4.58-1.42-6.53-2.59-1.96-1.17-3.75-2.72-5.39-4.64-1.46-1.74-2.71-3.69-3.75-5.85-1.04-2.16-1.81-4.46-2.33-6.91-.52-2.45-.78-5.05-.78-7.8,0-4.47,.65-8.47,1.95-12,1.3-3.53,3.16-6.56,5.58-9.07,2.42-2.51,5.26-4.42,8.52-5.74,3.26-1.31,6.73-1.97,10.41-1.97,4.49,0,8.49,.9,12,2.69,3.51,1.79,6.2,4.01,8.06,6.64,1.87,2.64,2.8,5.13,2.8,7.48,0,1.29-.45,2.42-1.36,3.41-.91,.98-2.01,1.48-3.29,1.48-1.44,0-2.52-.34-3.24-1.02-.72-.68-1.52-1.86-2.4-3.52-1.46-2.75-3.19-4.81-5.17-6.17s-4.42-2.04-7.33-2.04c-4.62,0-8.3,1.75-11.04,5.26-2.74,3.51-4.11,8.49-4.11,14.95,0,4.32,.61,7.91,1.82,10.77,1.21,2.86,2.93,5,5.15,6.42,2.22,1.41,4.82,2.12,7.8,2.12,3.23,0,5.96-.8,8.2-2.4,2.23-1.6,3.92-3.96,5.05-7.06,.48-1.46,1.07-2.66,1.78-3.58,.71-.92,1.84-1.38,3.41-1.38,1.34,0,2.49,.47,3.44,1.4,.96,.93,1.44,2.1,1.44,3.48Z"/></g><path class="cls-1" d="M226.76,29.73h12.53c1.25,0,2.2,.26,2.85,.77,.66,.51,.98,1.21,.98,2.09,0,.78-.26,1.45-.78,1.99-.52,.54-1.31,.82-2.36,.82h-17.66c-1.2,0-2.13-.33-2.81-1s-1.01-1.44-1.01-2.34c0-.58,.22-1.34,.65-2.29s.9-1.7,1.42-2.24c2.13-2.21,4.05-4.1,5.76-5.67,1.71-1.58,2.93-2.61,3.67-3.11,1.31-.93,2.4-1.86,3.28-2.79,.87-.94,1.54-1.9,1.99-2.88,.46-.98,.68-1.95,.68-2.89,0-1.02-.24-1.94-.73-2.75-.49-.81-1.15-1.44-1.99-1.88-.84-.45-1.76-.67-2.75-.67-2.1,0-3.74,.92-4.94,2.76-.16,.24-.43,.9-.8,1.97-.38,1.07-.8,1.9-1.27,2.47-.47,.58-1.16,.86-2.08,.86-.8,0-1.46-.26-1.99-.79-.53-.53-.79-1.25-.79-2.16,0-1.1,.25-2.26,.74-3.46,.5-1.2,1.24-2.29,2.22-3.26,.98-.98,2.23-1.76,3.74-2.36,1.51-.6,3.28-.9,5.32-.9,2.45,0,4.53,.38,6.26,1.15,1.12,.51,2.1,1.22,2.95,2.11,.85,.9,1.51,1.93,1.98,3.11,.47,1.18,.71,2.4,.71,3.66,0,1.98-.49,3.79-1.48,5.41-.98,1.62-1.99,2.9-3.01,3.81-1.02,.92-2.74,2.36-5.15,4.33-2.41,1.97-4.06,3.5-4.96,4.58-.38,.43-.78,.95-1.18,1.56Z"/></svg>