<?xml version="1.0" encoding="UTF-8"?><svg id="Layer_1" xmlns="http://www.w3.org/2000/svg" viewBox="0 0 187.02 173.12"><defs><style>.cls-1{fill:#f2f2f2;}.cls-2{fill:#efefef;}.cls-3{fill:#b7b7b6;}.cls-4{fill:#424241;}.cls-5{fill:#898988;}</style></defs><circle class="cls-2" cx="100.57" cy="86.67" r="86.45"/><g><circle class="cls-3" cx="84.79" cy="107.63" r="36.68"/><circle cx="83.99" cy="105.64" r="17.42"/><circle class="cls-1" cx="92.97" cy="93.68" r="8.71"/><circle class="cls-1" cx="71.15" cy="116.79" r="4.58"/></g><path class="cls-5" d="M185.75,101.13c7.44-42.92-18.5-85.45-61.33-97.75C81.6-8.92,37.04,13.36,20.57,53.69l165.18,47.44Z"/><g><path class="cls-4" d="M116.52,80.86c-2.92,2.01-12.54,8.18-20.78,8.23,0,0,21.65-.46,29.44-5.7l-8.66-2.53Z"/><path class="cls-4" d="M125.25,83.42c-2.92,2.01-12.54,8.18-20.78,8.23,0,0,21.65-.46,29.44-5.7l-8.66-2.53Z"/><path class="cls-4" d="M134.15,86.02c-2.92,2.01-12.54,8.18-20.78,8.23,0,0,21.65-.46,29.44-5.7l-8.66-2.53Z"/><path class="cls-4" d="M142.87,88.57c-2.92,2.01-12.54,8.18-20.78,8.23,0,0,21.65-.46,29.44-5.7l-8.66-2.53Z"/><path class="cls-4" d="M151.6,91.12c-2.92,2.01-12.54,8.18-20.78,8.23,0,0,21.65-.46,29.44-5.7l-8.66-2.53Z"/><path class="cls-4" d="M159.74,93.5c-2.92,2.01-12.54,8.18-20.78,8.23,0,0,21.65-.46,29.44-5.7l-8.66-2.53Z"/><path class="cls-4" d="M168.46,96.05c-2.92,2.01-12.54,8.18-20.78,8.23,0,0,21.65-.46,29.44-5.7l-8.66-2.53Z"/><path class="cls-4" d="M177.19,98.6c-2.92,2.01-12.54,8.18-20.78,8.23,0,0,21.65-.46,29.44-5.7l-8.66-2.53Z"/><path class="cls-4" d="M20.78,52.87c-2.92,2.01-12.54,8.18-20.78,8.23,0,0,21.65-.46,29.44-5.7l-8.66-2.53Z"/><path class="cls-4" d="M29.51,55.42c-2.92,2.01-12.54,8.18-20.78,8.23,0,0,21.65-.46,29.44-5.7l-8.66-2.53Z"/><path class="cls-4" d="M38.4,58.02c-2.92,2.01-12.54,8.18-20.78,8.23,0,0,21.65-.46,29.44-5.7l-8.66-2.53Z"/><path class="cls-4" d="M47.13,60.57c-2.92,2.01-12.54,8.18-20.78,8.23,0,0,21.65-.46,29.44-5.7l-8.66-2.53Z"/><path class="cls-4" d="M55.86,63.13c-2.92,2.01-12.54,8.18-20.78,8.23,0,0,21.65-.46,29.44-5.7l-8.66-2.53Z"/><path class="cls-4" d="M63.99,65.5c-2.92,2.01-12.54,8.18-20.78,8.23,0,0,21.65-.46,29.44-5.7l-8.66-2.53Z"/><path class="cls-4" d="M72.72,68.06c-2.92,2.01-12.54,8.18-20.78,8.23,0,0,21.65-.46,29.44-5.7l-8.66-2.53Z"/><path class="cls-4" d="M81.45,70.61c-2.92,2.01-12.54,8.18-20.78,8.23,0,0,21.65-.46,29.44-5.7l-8.66-2.53Z"/><path class="cls-4" d="M90.18,73.16c-2.92,2.01-12.54,8.18-20.78,8.23,0,0,21.65-.46,29.44-5.7l-8.66-2.53Z"/><path class="cls-4" d="M98.97,75.73c-2.92,2.01-12.54,8.18-20.78,8.23,0,0,21.65-.46,29.44-5.7l-8.66-2.53Z"/><path class="cls-4" d="M107.59,78.25c-2.92,2.01-12.54,8.18-20.78,8.23,0,0,21.65-.46,29.44-5.7l-8.66-2.53Z"/></g></svg>