<?xml version="1.0" encoding="UTF-8"?><svg id="Layer_1" xmlns="http://www.w3.org/2000/svg" viewBox="0 0 111.07 81.31"><defs><style>.cls-1{fill:#010101;}</style></defs><path class="cls-1" d="M54.26,78.09c-5.17-.53-10.41-.59-15.58,.67-3,.73-5.96,1.58-8.95,2.34-.66,.17-1.56,.52-1.86-.43-.29-.92,.61-1.19,1.26-1.45,7.9-3.19,15.96-5.48,24.62-4.85,1.43,.1,2.88-.12,4.32-.16,.59-.02,1.21,.02,1.44,.7,.23,.66,.01,1.24-.41,1.8-1.25,1.65-3.1,1.15-4.84,1.38Z"/><path class="cls-1" d="M17.1,59.22c.03-3.07,2.96-6.16,5.75-6.09,1.76,.05,3.22,2.25,3.25,4.9,.03,2.65-2.29,5.35-4.62,5.38-2.15,.03-4.39-2.13-4.37-4.2Z"/><path class="cls-1" d="M58.05,57.83c.19-1.59,1.22-3.45,2.41-5.1,1.25-1.73,3.91-1.14,4.86,.83,1.2,2.5,.09,6.42-2.28,7.8-1.18,.68-2.44,.78-3.65-.02-1.07-.7-1.45-1.73-1.34-3.51Z"/><path d="M101.22,25.61c-7.7,1.2-15.34,2.71-23,4.15-1.62,.3-1.73-.36-1.5-1.49,.44-2.17,1.02-4.33,1.25-6.53,.45-4.34,.5-8.66-1.61-12.78-1.82-3.55-4.62-6.13-8.83-7.09-5.18-1.19-9.27,.74-12.83,4.02-1.43,1.32-3.06,2.46-4.73,3.79-.49-4.53-2.34-7.94-7.04-9.57l-5.81-.13c-.05,.5-.51,.57-.9,.77-2.12,1.05-4.52,1.75-6.23,3.32-5.19,4.76-10.62,9.34-14.52,15.12-1.14,1.69-2.17,3.52-4.94,2.2-.17-.08-.44,.03-.66,.03-4.06,0-6.71,2.05-8.75,4.98-.21,.92-1.56,1.51-.96,2.97,.6-.7,1.03-1.2,1.46-1.7,2.01-2.41,4.46-4.06,8.02-3.9,1.45,.07,1.81,.32,1.03,1.69-2.19,3.85-4.58,7.62-5.88,11.85-.83,2.71,.06,3.94,3.11,3.69,1.46-.12,2.8-.62,3.89-1.65,3.74-3.52,3.81-7.9,3.53-12.37-.09-1.45-.78-2.74,.36-4.36,3.64-5.19,8.22-9.6,12.85-14.02,2.33-2.22,4.82-4.08,7.98-5.22,4.47-1.62,7.36-1.14,9.53,2.81,1.59,2.89,1.4,5.97-.89,8.39-3.43,3.61-6.98,7.13-10.16,10.93-2.63,3.15-2.9,6.89-.53,9.49,1.99,2.18,4.86,2.21,6.77,0,4.69-5.43,7.48-11.58,8.5-18.44,.17-1.15-.13-2.49,.85-3.44,1.61-1.57,3.24-3.14,5.01-4.56,2.28-1.84,4.49-3.85,7.78-4.17,6.45-.62,9.82,4.05,10.92,9.31,1.11,5.34-.37,10.55-1.74,15.71-.28,1.06-.9,1.59-2.18,1.89-6.1,1.39-11.54,3.94-16.19,7.86-1.42,1.2-2.27,2.67-2.98,4.2-.93,1.99,.36,4.27,2.38,4.39,1.24,.07,2.6,.12,3.73-.25,7.5-2.42,14.17-5.83,17.48-12.94,.41-.89,1.06-1.4,2.11-1.56,1.24-.18,2.46-.43,3.7-.62,8.8-1.4,17.48-3.26,25.97-5.79,1.51-.45,3.06-.86,4.53-2.05-3.56-.22-6.72,.57-9.85,1.06ZM7.24,38.36c.95-3.93,3.09-7.3,5-10.89,1.91,3.98-.96,10.28-5,10.89Zm36.44-12.94c-1.44,2.41-3.01,4.75-4.49,7.14-.77,1.24-1.55,1.06-2.33,.06-1.11-1.41-1.12-2.85-.11-4.32,1.8-2.63,4.17-4.85,6.34-7.21,.92-1,1.46-2.33,3.3-3.02-.72,2.69-1.37,5.13-2.7,7.36Zm17.79,16.63c-1.59,1-3.35,1.61-5.22,2.02-.49,.11-1.02,.5-1.42,.04-.48-.56,.07-1.01,.45-1.4,2.66-2.78,5.87-4.94,9.58-6.35,1.55-.59,3.02-1.74,5.22-1.37-2.12,3.4-5.5,5.1-8.61,7.06Z"/></svg>